<?xml version="1.0" encoding="utf-8"?>
<!-- Svg Vector Icons : http://www.onlinewebfonts.com/icon -->
<!DOCTYPE svg PUBLIC "-//W3C//DTD SVG 1.1//EN" "http://www.w3.org/Graphics/SVG/1.1/DTD/svg11.dtd">
<svg version="1.1" xmlns="http://www.w3.org/2000/svg" xmlns:xlink="http://www.w3.org/1999/xlink" x="0px" y="0px" viewBox="0 0 1000 1000" enable-background="new 0 0 1000 1000" xml:space="preserve">
<metadata> Svg Vector Icons : http://www.onlinewebfonts.com/icon </metadata>
<g fill="Red"><path d="M500,999.2H304c-18.2,0-39.9-9-39.9-52l8.7-512.1c0.2-8.6,7.6-15.3,15.9-15.4c8.6,0.2,15.5,7.3,15.4,15.9l-8.7,511.9c0,20.5,4.4,20.5,8.6,20.5h196c8.6,0,15.6,7,15.6,15.6C515.6,992.2,508.6,999.2,500,999.2z"/><path d="M151.8,946.5c-3.6,0-7.5-0.4-11.5-1.4l-99.9-14.5c-10.7-2.3-24-6.8-28.8-21.1c-3-9-1.3-18.2,1.3-30.2l127.9-569c30.1-72.8,172.8-100,183.9-100c0,0,0,0,0.1,0c8.6,0,15.6,7,15.6,15.6c0,8.6-6.9,15.7-15.6,15.7c-17.4,1.3-132.4,29.5-154.6,79.6l-126.8,565c-0.6,2.9-2,9.2-2.2,12.4c0.9,0.4,2.4,0.8,4.7,1.4l99.9,14.6c7.4,1.6,10.1,2.2,13.8-14.4l113.5-468.3c2-8.4,10.5-13.6,18.9-11.5c8.4,2,13.5,10.5,11.5,18.9L190.2,907C184.4,933.2,171.5,946.5,151.8,946.5z"/><path d="M696,999.2H500c-8.6,0-15.6-7-15.6-15.6s7-15.6,15.6-15.6h196c4.2,0,8.6,0,8.6-20.7l-8.7-511.6c-0.1-8.6,6.7-15.8,15.4-15.9c8.6-0.6,15.8,6.7,15.9,15.4l8.7,511.9C735.9,990.2,714.2,999.2,696,999.2z"/><path d="M847.8,946.6c-19.1,0-32.1-13.3-38-39.8L696.4,439c-2-8.4,3.1-16.8,11.5-18.9c8.3-2.1,16.8,3.1,18.9,11.5l113.4,468c3.8,16.9,6.4,16.3,12.8,14.9l102.2-15c1.7-0.4,2.9-0.8,3.6-1.1c-0.1-3.2-1.5-9.5-2.2-12.5L829.7,321c-22.2-50.1-137.2-78.3-155.1-79.6c-8.4-0.6-15.1-7.8-14.8-16.2c0.3-8.4,6.8-14.8,15.4-15c11.1,0,153.8,27.2,183.9,100l0.8,2.5l127.1,566.4c2.7,12.1,4.3,21.3,1.4,30.3c-4.7,14.2-18.1,18.7-27.7,20.8l-102.1,15C854.8,946.2,851.2,946.6,847.8,946.6z"/><path d="M616.7,710.2c0,119.1,46,193.2,46,193.2H343.8c0,0,46-74.1,46-193.2H616.7 M616.7,694.6H389.9c-8.6,0-15.6,7-15.6,15.6c0,112.7-43.3,184.2-43.7,184.9c-3,4.8-3.1,10.9-0.3,15.8c2.8,4.9,8,8,13.6,8h318.9c5.7,0,10.9-3.1,13.7-8c2.8-5,2.6-11-0.4-15.8c-0.4-0.7-43.7-72.2-43.7-184.9C632.4,701.6,625.4,694.6,616.7,694.6L616.7,694.6z"/><path d="M389.9,203"/><path d="M463.5,400.8c-4.3,0-7.8-3.5-7.8-7.8c0-4.4,0.6-9.2,1.2-14.2c2.2-17.6,4.5-35.8-19.4-58.1c-12.1-11.4-18-23.6-17.4-36.4c0.9-19.7,17.2-32.5,17.9-33.1c3.4-2.6,8.3-2,11,1.4c2.6,3.4,2,8.3-1.4,10.9l0,0c-0.1,0.1-11.4,9.1-11.9,21.6c-0.3,8,3.9,16.1,12.5,24.2c29.6,27.8,26.5,53,24.2,71.4c-0.5,4.3-1.1,8.4-1.1,12.2C471.3,397.3,467.8,400.8,463.5,400.8z"/><path d="M576.7,395.6c-0.5,0-0.9,0-1.4-0.1c-0.9-0.2-21.3-3.9-31.3-20.9c-6.5-11-7-24.6-1.6-40.3c13-37.7-6.2-65.9-12.4-68.4c-4.3-0.7-6.9-4.6-6.3-8.9c0.7-4.3,4.9-7.2,9.2-6.4c8.6,1.4,15.8,11.9,18.4,16.4c4.6,7.6,18.6,35.5,5.9,72.4c-3.9,11.2-3.8,20.4,0.3,27.3c6.3,10.7,20.4,13.4,20.5,13.4c4.3,0.7,7.1,4.8,6.4,9.1C583.8,392.9,580.5,395.6,576.7,395.6z"/><path d="M675.2,241.5c-8.6,0-15.6-7-15.6-15.6c0-8.6,7-15.6,15.6-15.6c2,0,5.7-0.2,7.2-1.9c1.3-1.4,2-4.7,2-8.8c0-45.9-84.5-167.4-185.9-167.4c-97.6,0-178.8,120.5-178.8,166c0,4.6,0.9,8.3,2.4,10c1.5,1.8,5,2.2,7.6,2.2c8.6,0,15.6,7,15.6,15.6c0,8.6-7,15.6-15.6,15.6c-16.6,0-26.1-7.1-31.3-13c-6.6-7.7-9.9-17.9-9.9-30.5c0-64.9,97.2-197.2,210.1-197.2c116.7,0,217.2,133.3,217.2,198.7c0,12.2-3.3,22.1-9.9,29.6C700.7,234.7,691.3,241.5,675.2,241.5z"/><path d="M343.2,239.3c-2.6,0-5.2-1.3-6.7-3.7c-12-19.5-8.3-50.6,9.9-83.2c27.2-48.7,85.2-97.8,153.5-97.8c51.9,0,101,23.7,134.7,65c28.3,34.8,41.5,77.7,34.4,112c-0.9,4.2-5.1,6.9-9.2,6.1c-4.2-0.9-6.9-5-6.1-9.2c6.2-29.8-5.8-67.7-31.2-98.9C591.9,91.8,547.2,70.2,500,70.2c-62,0-114.9,45.1-139.9,89.8c-15.2,27.2-19.1,53-10.3,67.4c2.3,3.7,1.1,8.5-2.6,10.8C346,238.9,344.6,239.3,343.2,239.3z"/><path d="M505.7,263.7c-116.7,0-193.1-30.2-194.2-30.6c-4-1.6-5.9-6.2-4.3-10.2c1.6-4,6.2-5.9,10.2-4.3c1.6,0.6,162.6,64,374.3,3.1c4.2-1.2,8.5,1.2,9.7,5.4c1.2,4.1-1.2,8.5-5.4,9.7C626,256.9,561.3,263.7,505.7,263.7z"/><path d="M494.5,593.1h-66.5v-40.9c0-4.7,1.3-9.2,5.6-11.8l37.5-19.1v-25.9h-19.9v15.9h-23.2v-24.2c0-8.2,6.7-15,14.8-15h36.7c8.2,0,15,6.7,15,15v39c0,4.7-1.3,9.2-5.8,11.8l-37.5,19.3v12.6h43.3L494.5,593.1L494.5,593.1z"/><path d="M567.6,593.1h-23.1v-17.8h-36.7v-19.1l29.6-84h30.2V552h9.4v23.2h-9.4V593.1z M544.6,552V523l1.1-14.8h-0.8L531.3,552L544.6,552L544.6,552z"/></g>
</svg>
