<?xml version="1.0" standalone="no"?>
<!DOCTYPE svg PUBLIC "-//W3C//DTD SVG 20010904//EN"
 "http://www.w3.org/TR/2001/REC-SVG-20010904/DTD/svg10.dtd">
<svg version="1.0" xmlns="http://www.w3.org/2000/svg"
 width="1280.000000pt" height="1269.000000pt" viewBox="0 0 1280.000000 1269.000000"
 preserveAspectRatio="xMidYMid meet">
<metadata>
Created by potrace 1.15, written by Peter Selinger 2001-2017
</metadata>
<g transform="translate(0.000000,1269.000000) scale(0.100000,-0.100000)"
fill="#000000" stroke="none">
<path d="M7334 12676 c-173 -33 -327 -100 -437 -191 -152 -126 -227 -270 -227
-436 0 -100 14 -165 56 -259 18 -41 39 -111 48 -155 66 -352 82 -594 106
-1545 14 -553 36 -806 99 -1112 18 -87 19 -102 6 -201 -131 -991 -217 -2323
-265 -4072 -27 -1007 -32 -1108 -56 -1147 -11 -18 -44 26 -111 150 -50 92 -86
144 -136 196 -57 60 -70 81 -86 136 -38 128 -57 232 -107 578 -54 375 -97 553
-187 767 -86 206 -98 255 -98 415 0 180 36 316 172 657 l69 172 -51 103 c-60
124 -111 284 -138 433 -19 104 -26 162 -67 560 -22 213 -56 396 -99 532 l-35
112 15 93 c49 305 50 331 50 1298 1 949 4 1029 46 1325 32 228 74 398 123 505
66 145 85 250 67 371 -47 299 -313 550 -664 624 -85 19 -254 19 -329 1 l-58
-13 0 28 c0 69 -51 39 -124 -74 -154 -236 -306 -643 -306 -817 l0 -49 -42 -6
c-87 -11 -721 -65 -943 -80 -472 -31 -954 -12 -1254 49 l-63 13 6 -51 c4 -28
10 -68 13 -88 3 -21 1 -38 -4 -38 -5 0 -40 64 -78 142 -143 292 -233 391 -374
414 -56 9 -92 -25 -98 -92 -10 -97 48 -294 142 -488 l44 -90 -57 -61 c-135
-144 -242 -357 -306 -610 -32 -128 -66 -319 -111 -620 -20 -132 -47 -294 -60
-360 -41 -206 -115 -905 -130 -1225 -3 -74 -10 -154 -15 -176 -5 -23 -21 -160
-35 -305 -15 -145 -33 -300 -41 -344 -8 -44 -19 -120 -23 -170 -12 -123 -49
-367 -67 -440 -39 -160 -42 -240 -7 -233 25 5 41 65 42 154 1 45 12 142 26
215 63 335 106 667 165 1279 70 737 90 911 115 1014 14 55 30 140 36 190 17
145 40 275 50 282 11 6 11 -43 -1 -111 -4 -27 -6 -52 -4 -54 12 -13 37 93 64
275 49 336 70 451 105 589 56 221 122 365 210 462 48 54 118 104 129 93 2 -3
47 -133 99 -290 181 -539 346 -1122 521 -1835 91 -368 111 -441 171 -613 51
-147 57 -171 56 -240 -1 -102 25 -158 116 -250 144 -145 389 -272 525 -272 58
0 69 16 45 65 -17 37 -70 76 -164 123 -34 18 -64 36 -67 41 -6 10 41 61 57 61
16 0 1 74 -42 215 -22 72 -36 131 -31 133 15 5 12 22 -4 22 -19 0 -33 97 -16
113 14 14 40 -16 40 -45 0 -33 41 -171 81 -273 78 -201 209 -369 335 -431 53
-26 69 -29 155 -29 109 0 121 5 359 144 411 241 665 477 751 699 31 80 32 206
1 282 -34 86 -88 149 -157 184 -78 40 -80 61 -5 61 112 -1 248 -94 315 -216
24 -45 29 -67 33 -151 4 -88 2 -108 -23 -183 -15 -48 -65 -153 -112 -238 -47
-83 -99 -185 -115 -226 -40 -98 -48 -205 -23 -296 18 -70 25 -79 68 -89 16 -4
40 -18 54 -32 23 -23 25 -31 21 -91 -4 -56 -12 -81 -68 -186 -120 -227 -159
-312 -165 -354 -6 -36 -3 -44 17 -60 66 -51 116 -113 133 -163 33 -100 7 -238
-67 -347 l-28 -42 25 -27 c14 -15 30 -44 37 -65 15 -53 -4 -100 -92 -224 -39
-53 -70 -101 -70 -105 0 -9 -87 -47 -115 -50 -73 -8 -62 37 54 230 28 47 51
89 51 93 0 4 -33 -21 -74 -57 -83 -72 -187 -126 -348 -180 -112 -37 -225 -62
-235 -52 -11 11 31 47 102 88 43 24 59 37 42 33 -133 -29 -93 147 70 309 96
95 218 141 269 100 18 -15 18 -15 -3 -5 -37 18 -71 12 -107 -19 -34 -31 -92
-117 -83 -126 2 -3 18 -6 36 -7 35 -2 34 0 21 -47 -19 -65 11 -93 48 -45 11
14 24 25 30 25 5 0 22 10 37 21 21 17 26 28 22 48 -5 23 1 30 55 61 124 72
228 221 228 327 0 44 -5 58 -31 87 -16 19 -40 38 -51 42 -20 6 -19 7 8 29 40
32 29 37 -33 15 -120 -42 -249 -141 -301 -229 -65 -113 -341 -310 -587 -420
-61 -27 -171 -70 -245 -95 -74 -25 -172 -58 -216 -75 -212 -78 -432 -86 -689
-26 -26 6 -25 4 16 -23 123 -80 119 -199 -10 -372 -23 -30 -46 -72 -52 -95 -5
-22 -24 -85 -41 -140 -101 -334 -312 -723 -592 -1095 l-87 -115 -182 -5 c-133
-4 -199 -10 -247 -24 -71 -20 -173 -24 -455 -17 -193 5 -249 -6 -300 -59 -16
-17 -38 -31 -49 -31 -17 -1 -18 -2 -3 -6 20 -5 20 -4 7 -39 -6 -15 -12 -64
-14 -108 -3 -65 -13 -112 -56 -241 -61 -185 -71 -275 -35 -315 17 -19 28 -22
80 -18 l60 4 -79 -76 c-159 -151 -297 -337 -378 -507 -46 -97 -88 -237 -88
-294 0 -15 -44 -117 -99 -227 -109 -224 -150 -334 -158 -431 -18 -220 131
-428 423 -587 214 -117 637 -280 964 -373 312 -88 474 -115 858 -141 756 -52
1100 -44 1427 34 170 41 631 174 820 237 213 70 403 160 460 217 107 105 172
212 243 402 39 106 71 172 94 200 71 84 171 81 316 -11 25 -16 57 -29 71 -29
40 -1 104 -34 133 -68 40 -48 63 -122 92 -299 36 -219 79 -319 164 -378 225
-156 558 -338 847 -463 658 -285 1467 -457 2340 -497 72 -3 202 -10 290 -15
526 -32 595 -33 595 -10 0 20 -152 58 -400 100 -102 17 -220 40 -263 51 -66
17 -107 19 -260 18 -167 -2 -186 0 -229 20 -56 26 -163 35 -273 24 -114 -12
-184 -1 -315 50 -158 61 -301 103 -675 196 -488 122 -697 189 -870 281 -164
86 -399 222 -470 271 -75 52 -282 256 -334 328 -36 51 -40 95 -12 111 59 31
220 -14 339 -96 106 -73 229 -131 327 -155 75 -17 119 -19 436 -19 195 0 383
-1 419 -2 36 -2 128 3 205 11 366 37 860 -1 1380 -104 248 -50 408 -66 702
-72 285 -6 487 3 908 43 285 26 338 38 795 173 113 34 313 93 445 132 693 203
750 227 791 334 24 65 9 175 -40 284 -41 89 -40 108 1 141 14 11 24 22 22 23
-2 2 -31 15 -64 29 -154 67 -305 60 -685 -32 -213 -52 -338 -67 -652 -80 -141
-5 -301 -16 -355 -25 -107 -16 -267 -55 -325 -80 -21 -8 -38 -11 -38 -6 0 14
212 81 405 130 312 78 657 141 774 141 45 0 52 2 42 14 -14 17 -1 20 214 41
185 19 260 32 300 52 37 19 46 33 39 56 -3 10 1 26 9 35 78 89 89 297 28 490
-25 78 -76 180 -106 212 -31 34 -82 116 -141 229 -60 114 -109 161 -192 185
-120 33 -124 20 -42 -140 35 -68 60 -127 56 -131 -5 -4 -11 -3 -13 4 -12 34
-52 80 -83 95 -45 23 -94 22 -147 -1 -54 -25 -76 -66 -71 -134 3 -50 2 -51
-29 -58 -48 -10 -95 -41 -117 -79 -15 -25 -21 -59 -25 -140 -9 -154 -20 -167
-191 -214 -58 -16 -120 -26 -160 -26 -119 1 -176 43 -323 242 -46 62 -100 127
-120 145 -66 57 -140 64 -252 22 -65 -24 -67 -24 -65 8 6 86 -24 137 -86 149
-30 5 -140 -14 -191 -33 -23 -9 -14 12 22 54 24 28 32 44 24 49 -16 10 -4 94
20 143 12 22 39 59 61 82 35 37 43 41 73 36 26 -4 51 3 108 31 128 64 96 90
-95 79 -100 -5 -114 4 -23 17 35 6 52 14 64 33 16 24 16 26 -5 43 -22 18 -67
25 -257 36 -60 3 -117 10 -125 14 -8 5 -38 4 -66 -1 -70 -13 -123 5 -241 82
-110 71 -169 96 -248 105 -30 4 -55 8 -55 9 0 2 7 16 15 31 11 22 15 66 15
181 0 218 24 313 78 313 36 0 69 -22 179 -117 114 -100 173 -143 243 -178 30
-15 69 -40 86 -55 73 -64 291 -128 511 -151 208 -21 433 0 433 41 0 20 -51 59
-104 79 -286 108 -806 449 -942 617 -21 27 -62 77 -91 111 -28 34 -57 71 -63
83 -11 20 -9 21 28 17 29 -2 54 -15 90 -45 65 -55 152 -107 220 -132 68 -26
90 -13 35 21 -32 20 -35 24 -18 27 33 6 38 19 16 41 -31 31 -51 27 -51 -9 l0
-30 -46 22 c-35 18 -42 25 -31 33 80 59 25 218 -101 293 -44 25 -55 27 -157
27 -131 -1 -195 -11 -466 -76 -113 -27 -244 -55 -290 -63 -46 -8 -115 -26
-154 -40 -77 -28 -211 -36 -233 -14 -18 18 3 45 62 79 35 19 56 38 60 54 10
40 54 82 104 100 31 11 102 20 209 25 239 12 262 31 208 165 -6 14 2 10 26
-13 73 -71 167 -100 270 -82 146 26 163 25 221 -10 31 -20 67 -33 88 -34 31
-1 35 2 38 27 7 58 -72 122 -123 99 -25 -11 -25 -11 -25 36 0 67 -34 131 -85
159 -37 21 -53 22 -214 22 -196 1 -243 -7 -502 -82 -182 -53 -206 -58 -291
-61 -49 -2 -80 -10 -143 -40 -91 -43 -90 -41 20 37 86 61 114 92 96 110 -6 6
-43 12 -83 15 -87 5 -173 31 -173 52 0 22 88 24 220 6 120 -17 255 -21 380
-12 161 11 382 92 522 192 64 46 64 46 49 16 -34 -65 -10 -138 53 -168 30 -15
43 -15 96 -5 71 14 108 5 189 -47 28 -18 56 -32 64 -32 8 0 27 14 43 31 21 22
26 35 20 47 -4 10 -11 44 -14 78 -5 67 -22 107 -68 159 l-31 35 -39 -20 c-21
-11 -59 -23 -84 -27 -41 -5 -45 -4 -45 15 0 13 17 34 45 56 l46 34 -68 7 c-37
4 -88 11 -113 17 -25 5 -67 13 -95 18 -115 19 -342 88 -420 127 -16 9 -76 44
-131 79 -289 180 -615 354 -666 354 -28 0 -39 -22 -18 -35 6 -3 10 -10 10 -15
0 -12 -167 35 -275 77 -307 121 -538 282 -608 422 -53 107 -28 218 69 311 37
36 43 39 26 14 -41 -60 -57 -116 -57 -199 0 -71 4 -89 33 -147 38 -78 101
-139 180 -176 48 -22 77 -27 182 -33 141 -7 163 -13 397 -105 227 -89 320
-104 418 -68 16 6 18 5 8 -7 -21 -22 -16 -73 10 -97 41 -39 97 -55 207 -59
149 -7 291 16 361 58 104 62 192 99 234 99 56 0 73 -12 248 -169 l29 -26 -27
60 c-61 133 -67 200 -22 229 12 9 101 29 197 45 218 37 250 47 325 100 34 25
49 40 35 35 -14 -4 -68 -20 -120 -36 -60 -19 -126 -31 -180 -34 -47 -3 -118
-12 -157 -21 -122 -26 -299 -14 -528 36 -204 45 -427 111 -460 135 -28 21 -29
21 285 -23 192 -28 290 -46 324 -61 54 -24 120 -29 153 -11 12 6 37 37 56 69
37 63 62 75 92 42 l18 -20 56 31 c64 36 101 67 101 85 0 7 -10 19 -22 26 -30
16 -256 16 -455 -2 -285 -25 -477 -1 -690 85 -421 169 -837 628 -943 1040 -34
132 -47 271 -35 380 6 60 11 73 41 103 65 65 92 22 94 -148 1 -204 19 -412 40
-489 26 -93 42 -123 94 -180 23 -25 64 -83 91 -129 55 -92 116 -159 154 -169
42 -10 90 66 91 147 1 17 9 4 25 -39 30 -82 69 -130 132 -162 l51 -26 -34 -16
c-44 -21 -44 -48 0 -82 58 -45 228 -101 356 -119 25 -4 72 -20 105 -36 150
-74 428 -89 652 -35 113 28 230 90 295 156 53 54 62 60 129 74 76 15 123 39
117 58 -2 7 -29 25 -61 41 -45 22 -60 26 -71 17 -10 -8 -16 -9 -21 -1 -3 5 -3
10 2 10 4 1 -6 7 -23 14 -42 19 -164 99 -164 108 0 5 12 7 28 6 155 -10 193
39 165 215 -20 117 -12 176 27 220 27 30 32 32 97 31 52 -1 91 -10 168 -39
319 -119 378 -134 390 -95 21 67 -33 97 -325 176 -184 50 -281 91 -297 127
-12 27 -7 42 39 98 14 19 63 96 107 172 95 164 130 209 173 230 45 21 80 12
123 -32 74 -73 133 -193 176 -358 11 -45 27 -90 36 -100 24 -29 10 125 -22
232 -66 229 -174 372 -302 400 -32 6 -33 8 -27 48 18 116 99 327 291 752 166
368 191 429 260 625 88 248 152 358 446 754 85 115 176 245 203 289 55 94 103
209 104 252 0 27 -4 24 -47 -38 -48 -70 -67 -82 -37 -26 53 102 80 249 52 277
-24 24 -79 13 -157 -32 -148 -86 -330 -148 -541 -182 -125 -21 -1456 -38
-1745 -23 -258 13 -880 73 -1001 95 -39 7 -99 55 -121 97 -9 18 -33 95 -53
172 -20 77 -40 148 -44 158 -6 13 -5 16 8 11 9 -3 16 -1 16 5 0 6 -8 11 -17
11 -11 0 -28 20 -46 53 -64 122 -145 184 -299 227 -94 27 -284 35 -384 16z
m-2114 -656 c11 -7 9 -11 -13 -19 -16 -6 -40 -11 -54 -11 -15 0 -36 -12 -55
-32 -24 -26 -31 -29 -39 -17 -15 25 -10 57 13 73 25 18 123 22 148 6z m2505
-21 c8 -24 -8 -39 -42 -39 -27 0 -29 16 -6 42 21 24 40 23 48 -3z m-5760 -88
c3 -5 1 -12 -5 -16 -5 -3 -10 1 -10 9 0 18 6 21 15 7z m3260 -21 c-6 -9 -9 -9
-16 1 -10 17 0 34 13 21 6 -6 7 -16 3 -22z m-105 -50 c0 -52 -13 -67 -24 -27
-11 41 -7 77 9 77 11 0 15 -12 15 -50z m3096 -210 c22 -111 27 -174 31 -350 2
-136 1 -209 -5 -200 -10 16 -27 134 -38 268 -4 45 -11 82 -15 82 -5 0 -9 5 -9
11 0 5 5 7 10 4 17 -10 11 120 -10 250 -11 66 -20 127 -19 135 1 34 31 -74 55
-200z m-2966 155 c0 -35 -87 -91 -108 -70 -9 9 73 85 93 85 8 0 15 -7 15 -15z
m2315 -259 c-9 -77 -47 -346 -85 -596 -38 -250 -74 -500 -80 -555 -21 -192
-49 -302 -50 -197 0 67 29 274 41 286 4 5 6 34 3 65 -4 32 1 94 10 146 8 50
22 169 31 265 37 422 57 554 108 720 l32 105 3 -49 c2 -26 -4 -112 -13 -190z
m4030 144 c-10 -11 -20 -18 -23 -15 -7 6 18 35 31 35 5 0 2 -9 -8 -20z m-3418
-82 c-3 -7 -5 -2 -5 12 0 14 2 19 5 13 2 -7 2 -19 0 -25z m-6138 -155 c32 -48
37 -63 23 -63 -7 0 -56 79 -71 114 -9 23 20 -9 48 -51z m2375 -154 c53 -51
102 -101 108 -113 12 -23 -98 72 -177 153 -84 86 -33 56 69 -40z m647 48 c-15
-18 -111 -70 -118 -64 -2 3 6 12 19 20 93 57 120 69 99 44z m4409 -37 c24 -8
24 -8 -5 -8 -16 0 -43 4 -60 8 l-30 8 35 0 c19 0 46 -4 60 -8z m-6946 -106
c26 -40 59 -107 72 -149 32 -102 125 -448 163 -610 161 -684 230 -936 355
-1294 20 -57 35 -106 32 -108 -7 -7 -53 76 -84 152 -43 104 -81 226 -181 570
-49 171 -110 369 -136 440 -25 72 -55 166 -65 210 -24 104 -37 152 -122 429
-73 239 -118 406 -118 437 0 32 31 4 84 -77z m7109 69 c-13 -2 -35 -2 -50 0
-16 2 -5 4 22 4 28 0 40 -2 28 -4z m-1925 -14 c-2 -6 -8 -10 -13 -10 -5 0 -11
4 -13 10 -2 6 4 11 13 11 9 0 15 -5 13 -11z m2 -100 c0 -5 -4 -9 -10 -9 -5 0
-10 7 -10 16 0 8 5 12 10 9 6 -3 10 -10 10 -16z m93 -17 c21 -23 13 -32 -30
-32 -36 0 -56 25 -32 41 22 14 45 11 62 -9z m-2696 -72 c5 -26 -11 -38 -59
-45 -41 -6 -48 -5 -48 9 0 20 58 57 85 54 11 -2 21 -10 22 -18z m3167 -240 c4
-68 3 -84 -4 -55 -4 22 -11 83 -14 135 -4 69 -3 84 4 55 5 -22 11 -83 14 -135z
m-6014 -20 c0 -11 -4 -20 -10 -20 -5 0 -10 2 -10 4 0 2 -3 11 -6 20 -4 11 -1
16 10 16 9 0 16 -8 16 -20z m4 -65 c3 -9 0 -15 -9 -15 -8 0 -15 7 -15 15 0 8
4 15 9 15 5 0 11 -7 15 -15z m6032 -70 c11 -27 -2 -37 -14 -11 -7 16 -8 26 -1
26 5 0 12 -7 15 -15z m-36 -36 c0 -6 -4 -7 -10 -4 -5 3 -10 11 -10 16 0 6 5 7
10 4 6 -3 10 -11 10 -16z m-5941 -106 c-15 -18 -34 -1 -25 22 5 14 9 15 21 5
12 -10 13 -16 4 -27z m6011 -412 c18 -198 19 -252 10 -292 -7 -27 -16 -49 -20
-49 -16 0 -20 64 -24 410 -5 377 -4 375 34 -69z m-391 330 c-10 -52 -18 -67
-48 -91 -69 -57 -76 -26 -19 80 60 110 88 114 67 11z m-2879 -72 c0 -29 -42
-77 -71 -83 -64 -13 -60 18 9 64 49 32 62 36 62 19z m2880 -58 c0 -6 -4 -13
-10 -16 -5 -3 -10 1 -10 9 0 9 5 16 10 16 6 0 10 -4 10 -9z m-6360 -42 c0 -5
-4 -9 -10 -9 -5 0 -10 7 -10 16 0 8 5 12 10 9 6 -3 10 -10 10 -16z m923 -201
c-3 -35 -10 -72 -14 -83 -8 -20 -3 76 7 123 9 45 14 20 7 -40z m4848 26 c10
-29 3 -68 -12 -59 -9 6 -13 85 -4 85 3 0 10 -12 16 -26z m-4599 -29 c0 -5 -5
-11 -11 -13 -6 -2 -11 4 -11 13 0 9 5 15 11 13 6 -2 11 -8 11 -13z m-1197 -36
c11 -17 2 -18 -19 -3 -17 12 -17 14 -4 14 9 0 20 -5 23 -11z m1219 -48 c-7 -7
-34 28 -34 43 1 6 10 0 21 -13 11 -13 17 -27 13 -30z m4576 -12 c0 -6 -4 -7
-10 -4 -5 3 -10 11 -10 16 0 6 5 7 10 4 6 -3 10 -11 10 -16z m3317 -106 c-3
-10 -5 -4 -5 12 0 17 2 24 5 18 2 -7 2 -21 0 -30z m-8090 10 c5 -13 -43 -30
-54 -19 -3 3 0 13 7 21 15 18 41 16 47 -2z m2268 -31 c-26 -40 -85 -82 -85
-61 0 15 84 99 99 99 6 0 0 -17 -14 -38z m2475 28 c0 -5 -2 -10 -4 -10 -3 0
-8 5 -11 10 -3 6 -1 10 4 10 6 0 11 -4 11 -10z m-5 -110 c3 -5 1 -10 -4 -10
-6 0 -11 5 -11 10 0 6 2 10 4 10 3 0 8 -4 11 -10z m512 -32 c-3 -7 -5 -2 -5
12 0 14 2 19 5 13 2 -7 2 -19 0 -25z m-3040 -40 c-3 -8 -6 -5 -6 6 -1 11 2 17
5 13 3 -3 4 -12 1 -19z m3038 -38 c0 -7 -6 -15 -12 -17 -8 -3 -13 4 -13 17 0
13 5 20 13 18 6 -3 12 -11 12 -18z m546 -74 c6 -39 14 -113 18 -164 l6 -94 49
-20 c27 -10 166 -53 310 -94 370 -107 523 -168 671 -266 113 -75 198 -173 167
-191 -16 -11 -87 25 -292 148 -320 191 -486 265 -642 283 -86 10 -178 -1 -195
-24 -30 -41 -63 -247 -63 -402 0 -203 50 -361 149 -463 28 -29 51 -53 51 -54
0 0 -15 -2 -32 -3 -50 -4 -102 -44 -130 -100 l-25 -50 -6 142 c-4 80 -11 142
-17 144 -5 2 -10 10 -10 18 0 9 3 13 8 11 4 -3 4 63 1 146 -4 84 -10 312 -14
507 -4 208 -12 400 -21 463 -8 59 -14 120 -14 135 0 46 18 5 31 -72z m-3381
70 c0 -52 -41 -96 -90 -96 -30 0 -24 16 25 65 46 46 65 55 65 31z m2920 -26
c12 -8 12 -10 -3 -16 -22 -8 -50 3 -42 16 8 12 25 13 45 0z m2510 0 c0 -5 -4
-10 -9 -10 -6 0 -13 5 -16 10 -3 6 1 10 9 10 9 0 16 -4 16 -10z m-3130 -88 c0
-15 -2 -15 -10 -2 -13 20 -13 33 0 25 6 -3 10 -14 10 -23z m-23 -84 c-3 -8 -6
-5 -6 6 -1 11 2 17 5 13 3 -3 4 -12 1 -19z m-4546 -68 c-9 -23 -10 -23 -10 11
-1 20 2 39 7 43 11 12 14 -27 3 -54z m5616 38 c-3 -8 -6 -5 -6 6 -1 11 2 17 5
13 3 -3 4 -12 1 -19z m10 -50 c-3 -8 -6 -5 -6 6 -1 11 2 17 5 13 3 -3 4 -12 1
-19z m2003 -329 c0 -5 -7 -9 -15 -9 -15 0 -20 12 -9 23 8 8 24 -1 24 -14z
m-2340 -24 c0 -14 -2 -25 -4 -25 -2 0 -6 11 -8 25 -3 14 -1 25 3 25 5 0 9 -11
9 -25z m-4439 -25 c-22 -19 -41 -26 -41 -15 0 5 51 34 60 34 3 0 -6 -9 -19
-19z m14 -40 c-3 -5 -11 -10 -16 -10 -6 0 -7 5 -4 10 3 6 11 10 16 10 6 0 7
-4 4 -10z m6435 -21 c0 -6 -7 -6 -20 1 -11 6 -20 15 -20 21 0 6 7 6 20 -1 11
-6 20 -15 20 -21z m-5120 1 c0 -5 -2 -10 -4 -10 -3 0 -8 5 -11 10 -3 6 -1 10
4 10 6 0 11 -4 11 -10z m-1395 -10 c14 -23 -29 -61 -120 -106 -52 -26 -97 -45
-99 -43 -3 3 -1 22 4 43 15 69 80 115 162 116 26 0 50 -5 53 -10z m5595 -30
c0 -5 -4 -10 -10 -10 -5 0 -10 5 -10 10 0 6 5 10 10 10 6 0 10 -4 10 -10z
m-4501 -113 c1 -30 -3 -46 -9 -42 -5 3 -10 36 -9 73 1 77 16 51 18 -31z
m-1350 -112 c28 -111 29 -154 3 -123 -16 20 -42 132 -48 206 -7 92 7 65 45
-83z m5862 122 c-13 -13 -26 -3 -16 12 3 6 11 8 17 5 6 -4 6 -10 -1 -17z
m-5791 -47 c0 -5 -9 -10 -21 -10 -11 0 -17 5 -14 10 3 6 13 10 21 10 8 0 14
-4 14 -10z m5716 -69 c-3 -5 5 -16 19 -25 14 -9 25 -21 25 -26 0 -18 -138 -5
-158 15 -14 14 33 36 66 31 19 -3 30 -1 27 5 -4 5 1 9 10 9 9 0 14 -4 11 -9z
m-66 -106 c7 -14 11 -28 7 -31 -3 -3 -13 8 -22 25 -8 17 -12 31 -7 31 5 0 15
-11 22 -25z m165 15 c-3 -5 -10 -10 -16 -10 -5 0 -9 5 -9 10 0 6 7 10 16 10 8
0 12 -4 9 -10z m-55 -10 c0 -5 -19 -10 -42 -10 -32 0 -39 3 -28 10 20 13 70
13 70 0z m885 -156 c-5 -48 -10 -64 -22 -64 -13 0 -15 9 -11 48 6 55 28 113
35 94 3 -8 2 -42 -2 -78z m-5045 -5 c0 -5 -7 -9 -15 -9 -15 0 -20 12 -9 23 8
8 24 -1 24 -14z m4802 -1 c-7 -7 -12 -8 -12 -2 0 14 12 26 19 19 2 -3 -1 -11
-7 -17z m-1654 -109 c2 -23 2 -23 -13 -5 -18 24 -20 39 -2 34 6 -3 13 -15 15
-29z m1863 -32 c-8 -8 -11 -7 -11 4 0 9 3 19 7 23 4 4 9 2 11 -4 3 -7 -1 -17
-7 -23z m-1051 -27 c0 -5 -4 -10 -9 -10 -6 0 -13 5 -16 10 -3 6 1 10 9 10 9 0
16 -4 16 -10z m985 -29 c3 -5 1 -12 -5 -16 -5 -3 -10 1 -10 9 0 18 6 21 15 7z
m-743 -88 c149 -52 198 -95 124 -109 -95 -17 -380 69 -438 133 -16 17 -12 18
105 12 99 -5 139 -12 209 -36z m-1292 -29 c0 -8 -4 -14 -10 -14 -5 0 -10 9
-10 21 0 11 5 17 10 14 6 -3 10 -13 10 -21z m-4468 4 c7 -18 -2 -39 -13 -32
-12 7 -12 44 0 44 5 0 11 -6 13 -12z m-72 -38 c0 -5 -5 -10 -11 -10 -5 0 -7 5
-4 10 3 6 8 10 11 10 2 0 4 -4 4 -10z m78 -50 c3 -21 2 -22 -12 -11 -19 16
-21 44 -3 39 6 -3 14 -15 15 -28z m4633 -170 c144 -187 266 -327 332 -380 62
-48 67 -61 15 -34 -53 27 -105 70 -221 183 -101 99 -113 115 -180 241 -40 74
-74 139 -76 145 -7 19 26 -20 130 -155z m1549 126 c0 -8 -4 -18 -10 -21 -5 -3
-10 3 -10 14 0 12 5 21 10 21 6 0 10 -6 10 -14z m-6243 -128 c-3 -8 -6 -5 -6
6 -1 11 2 17 5 13 3 -3 4 -12 1 -19z m6639 -38 c26 -11 44 -23 41 -26 -3 -3
-30 5 -59 19 -64 30 -50 36 18 7z m-460 -77 c-10 -10 -19 5 -10 18 6 11 8 11
12 0 2 -7 1 -15 -2 -18z m-1596 -138 c0 -13 -64 -35 -102 -35 -61 0 -82 16
-37 28 35 11 139 16 139 7z m-2675 -55 c3 -5 1 -10 -4 -10 -6 0 -11 5 -11 10
0 6 2 10 4 10 3 0 8 -4 11 -10z m2608 -7 c-7 -2 -19 -2 -25 0 -7 3 -2 5 12 5
14 0 19 -2 13 -5z m-2568 -33 c5 -17 -9 -60 -20 -60 -3 0 -5 18 -5 40 0 42 14
54 25 20z m-135 -99 c0 -11 -5 -23 -11 -27 -14 -8 -29 14 -22 33 8 20 33 16
33 -6z m130 -7 c0 -8 -4 -12 -10 -9 -5 3 -10 10 -10 16 0 5 5 9 10 9 6 0 10
-7 10 -16z m-160 -52 c0 -5 -9 -17 -20 -27 -22 -20 -26 -14 -10 16 11 19 30
26 30 11z m4730 -80 c0 -13 -12 -22 -22 -16 -10 6 -1 24 13 24 5 0 9 -4 9 -8z
m-1300 -179 c0 -37 -18 -101 -31 -108 -5 -4 -16 10 -24 29 -13 32 -14 40 -1
71 19 45 56 50 56 8z m170 -52 c0 -4 -9 -20 -21 -35 -16 -20 -29 -26 -60 -26
-49 0 -49 12 -2 45 37 24 83 34 83 16z m-3965 -391 c-9 -15 -41 -12 -55 5 -20
25 -2 37 31 20 16 -9 27 -20 24 -25z m380 -19 c3 -5 1 -12 -5 -16 -5 -3 -10 1
-10 9 0 18 6 21 15 7z m3479 -281 c4 -22 3 -31 -3 -25 -14 14 -47 104 -55 145
-5 29 -1 25 23 -25 16 -33 32 -76 35 -95z m46 86 c0 -8 -4 -18 -10 -21 -5 -3
-10 3 -10 14 0 12 5 21 10 21 6 0 10 -6 10 -14z m-455 -40 c75 -32 35 -54
-162 -92 -18 -4 -23 -11 -23 -38 0 -76 49 -160 119 -205 93 -60 255 -82 456
-62 135 14 158 18 150 32 -4 5 -2 9 4 9 5 0 11 -5 13 -10 2 -7 50 -3 136 10
l133 20 46 -20 c53 -23 49 -36 -13 -51 -22 -6 -187 -12 -369 -15 -181 -3 -340
-7 -352 -10 -15 -3 -23 -12 -24 -27 0 -21 -1 -21 -8 -2 -5 11 -7 23 -5 26 2 4
-15 2 -37 -4 -56 -14 -129 10 -206 67 -83 61 -153 178 -153 255 0 41 36 90 83
111 51 24 162 26 212 6z m486 -78 c11 -21 11 -22 -4 -9 -10 7 -17 17 -17 22 0
15 9 10 21 -13z m-3509 -15 c25 -23 23 -34 -17 -73 -19 -18 -40 -50 -46 -69
-15 -47 -64 -113 -134 -181 l-56 -55 26 75 c41 116 108 251 142 288 35 36 58
40 85 15z m-1006 -100 c-10 -10 -19 5 -10 18 6 11 8 11 12 0 2 -7 1 -15 -2
-18z m5174 -23 c0 -5 -13 -10 -30 -10 -16 0 -30 5 -30 10 0 6 14 10 30 10 17
0 30 -4 30 -10z m-514 -60 c119 -31 126 -47 23 -56 -59 -5 -68 -3 -111 25 -85
54 -51 66 88 31z m230 -5 c-11 -8 -25 -15 -30 -15 -6 1 0 7 14 15 32 19 40 18
16 0z m-5121 -50 c23 -22 31 -55 27 -107 -2 -16 10 -18 120 -18 67 0 119 -2
116 -5 -3 -3 -59 -19 -124 -35 -134 -33 -259 -74 -281 -92 -15 -12 -164 -40
-172 -32 -3 2 1 10 7 16 7 7 12 23 12 36 0 36 -54 53 -202 61 -70 4 -133 12
-139 18 -12 12 28 47 88 77 32 16 32 16 35 -12 3 -25 6 -27 48 -26 33 0 81 18
185 66 153 72 162 75 218 77 28 1 44 -5 62 -24z m195 6 c0 -14 -18 -23 -30
-16 -6 4 -8 11 -5 16 8 12 35 12 35 0z m2887 -36 c43 -30 58 -97 58 -260 -1
-147 -7 -211 -46 -450 -24 -148 -79 -428 -85 -434 -11 -11 -7 212 12 604 8
171 14 365 14 433 0 130 3 138 47 107z m-3888 -78 c6 -8 14 -27 17 -44 5 -26
2 -31 -18 -36 -38 -11 -66 -8 -82 9 -21 20 -20 26 5 58 22 28 60 34 78 13z
m6716 -27 c-3 -5 -10 -10 -16 -10 -5 0 -9 5 -9 10 0 6 7 10 16 10 8 0 12 -4 9
-10z m-5195 -32 c6 -7 20 -28 30 -45 11 -18 27 -33 35 -33 38 0 -6 -144 -125
-404 -217 -479 -227 -739 -55 -1435 33 -135 34 -145 19 -162 -35 -39 -67 -19
-159 97 -37 47 -70 83 -72 80 -3 -3 -17 9 -31 27 -15 18 -79 88 -143 157 -64
69 -130 145 -147 169 -31 42 -42 94 -23 105 4 3 47 10 94 15 109 13 155 25
198 54 44 29 49 64 14 97 -14 13 -25 33 -25 45 0 37 -12 85 -21 85 -5 0 -9 -5
-9 -11 0 -20 -71 -164 -93 -188 -50 -54 -123 -58 -179 -11 l-23 20 30 -15 c35
-18 88 -19 117 -4 44 24 75 143 43 169 -13 11 -21 6 -50 -25 l-35 -37 -68 62
c-127 118 -303 197 -484 220 -196 24 -601 -40 -793 -125 -99 -43 -72 -20 39
34 145 71 261 114 413 153 122 31 136 33 313 33 166 0 193 -2 260 -24 109 -34
147 -56 225 -132 81 -78 130 -104 170 -89 53 20 55 98 2 130 l-30 18 26 24
c14 13 50 32 80 41 66 21 100 46 117 87 11 28 9 39 -21 118 l-34 87 -5 -91
c-5 -89 -13 -111 -50 -141 -19 -15 -90 -17 -127 -2 -28 11 -28 11 37 40 35 16
72 37 82 46 32 29 22 73 -39 170 -32 50 -66 105 -75 121 -20 37 -114 87 -238
127 -74 24 -109 28 -270 35 -117 5 -195 12 -213 21 l-28 13 27 14 c39 21 180
27 271 12 43 -6 177 -36 298 -66 330 -83 440 -83 515 -5 45 47 63 104 65 206
l2 79 49 23 c56 26 78 28 94 11z m-296 -39 c5 -5 7 -11 4 -15 -7 -6 -68 23
-68 32 0 8 53 -5 64 -17z m552 -4 c-10 -8 -23 -12 -28 -9 -14 9 2 24 25 24 21
-1 21 -1 3 -15z m-796 -20 c-7 -8 -16 -15 -21 -15 -5 0 -9 7 -9 15 0 9 9 15
21 15 18 0 19 -2 9 -15z m-1053 -51 c-3 -3 -12 -4 -19 -1 -8 3 -5 6 6 6 11 1
17 -2 13 -5z m1411 -38 c5 -45 -28 -165 -48 -176 -10 -6 -43 -10 -72 -10 -61
0 -141 34 -146 63 -5 25 42 22 105 -8 l53 -24 10 42 c24 94 54 150 79 145 9
-2 17 -15 19 -32z m-130 -54 c-6 -27 -23 -16 -26 18 -2 33 -2 34 13 15 9 -11
14 -26 13 -33z m5287 8 c18 -20 18 -22 1 -38 -15 -15 -18 -15 -26 -2 -12 19
-13 60 -2 60 5 0 17 -9 27 -20z m-76 -27 c24 -37 45 -103 32 -103 -3 0 -16 19
-28 43 -48 92 -51 132 -4 60z m-4746 -15 c-5 -30 -46 -167 -61 -207 -5 -14 -4
-14 11 -2 10 8 20 12 23 9 2 -3 -8 -12 -23 -19 -15 -8 -29 -21 -31 -29 -10
-49 -53 -120 -81 -134 -20 -11 -32 -12 -36 -5 -15 23 27 136 93 254 25 44 56
99 69 123 28 50 45 55 36 10z m4433 -15 c-11 -11 -17 4 -9 23 7 18 8 18 11 1
2 -10 1 -21 -2 -24z m-6016 -47 c0 -2 -7 -6 -15 -10 -8 -3 -15 -1 -15 4 0 6 7
10 15 10 8 0 15 -2 15 -4z m5710 0 c0 -11 -19 -15 -25 -6 -3 5 1 10 9 10 9 0
16 -2 16 -4z m-5800 -40 c-16 -14 -70 -31 -70 -21 0 7 60 34 75 35 5 0 3 -6
-5 -14z m5450 -16 c0 -5 -7 -10 -15 -10 -8 0 -15 5 -15 10 0 6 7 10 15 10 8 0
15 -4 15 -10z m-4765 -92 c-16 -70 -75 -184 -83 -160 -8 26 81 252 95 239 3
-3 -3 -39 -12 -79z m-849 31 c11 -18 -32 -44 -120 -74 -45 -15 -92 -34 -104
-42 -54 -34 -28 26 31 71 61 47 175 73 193 45z m979 -93 c-36 -44 -55 -57 -55
-36 0 14 79 94 86 87 3 -3 -11 -26 -31 -51z m60 5 c3 -6 -3 -15 -14 -21 -24
-12 -42 7 -20 21 18 11 26 11 34 0z m795 -57 c0 -8 -4 -12 -10 -9 -5 3 -10 10
-10 16 0 5 5 9 10 9 6 0 10 -7 10 -16z m-781 -40 c-37 -39 -84 -67 -101 -62
-12 4 108 98 125 98 6 0 -5 -16 -24 -36z m781 -4 c0 -5 -5 -10 -11 -10 -5 0
-7 5 -4 10 3 6 8 10 11 10 2 0 4 -4 4 -10z m5069 -24 c15 -8 44 -33 65 -56 47
-52 46 -84 -1 -88 -21 -2 -33 -9 -33 -18 0 -27 -29 -14 -64 30 -28 33 -36 52
-36 83 0 37 13 63 32 63 5 0 21 -6 37 -14z m-6759 -15 c0 -6 -4 -13 -10 -16
-5 -3 -10 1 -10 9 0 9 5 16 10 16 6 0 10 -4 10 -9z m373 -54 c18 -58 23 -142
8 -151 -11 -7 -27 57 -37 142 -8 77 6 82 29 9z m-552 -18 c-9 -23 -10 -23 -10
-2 -1 12 2 30 6 40 6 15 8 15 11 2 1 -8 -2 -26 -7 -40z m159 -19 c0 -13 -1
-13 -10 0 -5 8 -10 22 -10 30 0 13 1 13 10 0 5 -8 10 -22 10 -30z m203 21 c5
-22 -31 -111 -46 -111 -11 0 -2 67 15 105 13 30 24 32 31 6z m5762 -61 l5 -35
-14 30 c-18 35 -21 64 -6 49 5 -5 12 -25 15 -44z m224 14 c37 -15 120 -74 121
-85 0 -11 -149 30 -191 52 -95 48 -36 76 70 33z m-716 -48 c6 -15 -1 -26 -15
-26 -4 0 -8 9 -8 20 0 23 15 27 23 6z m-4003 -17 c0 -6 7 -9 15 -5 23 9 91
-58 120 -119 51 -104 33 -179 -47 -191 -47 -8 -51 -21 -52 -156 -1 -53 -4 -96
-7 -95 -4 1 -7 -2 -7 -8 0 -5 4 -9 8 -8 11 3 15 -9 39 -132 24 -121 30 -247
12 -253 -20 -7 -62 39 -86 93 -63 142 -105 490 -87 722 10 124 26 163 67 163
14 0 25 -5 25 -11z m4530 -168 c0 -23 -32 -115 -65 -190 -29 -65 -81 -113 -96
-90 -24 39 -2 126 51 204 64 93 110 125 110 76z m775 19 c3 -5 2 -10 -4 -10
-5 0 -13 5 -16 10 -3 6 -2 10 4 10 5 0 13 -4 16 -10z m-728 -97 c-2 -16 -4 -5
-4 22 0 28 2 40 4 28 2 -13 2 -35 0 -50z m-5535 5 c-9 -9 -12 -7 -12 12 0 19
3 21 12 12 9 -9 9 -15 0 -24z m5896 -118 c44 -16 38 -38 -15 -68 -49 -27 -58
-24 -78 24 -12 29 -19 34 -48 34 -71 0 -156 13 -150 23 8 13 248 2 291 -13z
m-288 -85 c0 -9 -9 -15 -21 -15 -18 0 -19 2 -9 15 7 8 16 15 21 15 5 0 9 -7 9
-15z m-358 -10 c0 -5 -5 -11 -11 -13 -6 -2 -11 4 -11 13 0 9 5 15 11 13 6 -2
11 -8 11 -13z m286 2 c7 -8 6 -18 -3 -31 -16 -21 -35 -14 -35 13 0 31 20 40
38 18z m-6498 -100 c0 -18 -2 -19 -10 -7 -13 20 -13 43 0 35 6 -3 10 -16 10
-28z m1076 -27 c66 -43 210 -166 259 -221 23 -26 24 -29 5 -13 -37 33 -122 84
-137 84 -29 0 -223 159 -223 182 0 18 39 5 96 -32z m5134 30 c0 -5 -2 -10 -4
-10 -3 0 -8 5 -11 10 -3 6 -1 10 4 10 6 0 11 -4 11 -10z m280 -18 c0 -14 -30
-37 -92 -72 -52 -29 -60 -30 -85 -18 -15 7 -28 18 -27 23 3 33 204 98 204 67z
m-415 -52 c3 -5 1 -10 -4 -10 -6 0 -11 5 -11 10 0 6 2 10 4 10 3 0 8 -4 11
-10z m-6205 -96 c0 -6 -65 -34 -81 -34 -19 0 10 28 34 33 36 7 47 7 47 1z
m-455 -184 c0 -9 -34 -32 -83 -57 -70 -34 -89 -49 -118 -92 -46 -67 -135 -154
-180 -176 -22 -10 -64 -18 -103 -19 -57 -1 -78 4 -151 38 -133 60 -233 94
-299 102 -55 6 -61 9 -61 30 0 27 -30 50 -84 65 -22 6 -35 14 -30 19 25 25
638 90 974 104 119 4 135 3 135 -14z m2105 -39 c19 -16 32 -33 28 -36 -4 -4
-28 14 -55 40 -50 49 -33 46 27 -4z m5277 29 c8 -12 9 -21 3 -25 -15 -9 -30 4
-30 26 0 24 12 24 27 -1z m-8468 -134 c17 -20 10 -77 -10 -89 -12 -7 -26 -7
-47 2 -28 12 -29 15 -21 44 14 50 54 72 78 43z m8480 -2 c39 -8 41 -24 3 -24
-31 0 -81 29 -51 30 9 0 31 -3 48 -6z m-8424 -103 c3 -5 1 -12 -5 -16 -5 -3
-10 1 -10 9 0 18 6 21 15 7z m7984 -5 c-2 -2 -18 -7 -34 -10 l-30 -6 30 14
c26 12 46 14 34 2z m-154 -46 c-28 -12 -45 -12 -45 0 0 6 15 10 33 9 27 0 29
-2 12 -9z m1393 -22 c2 -9 -10 -18 -35 -26 -20 -6 -39 -9 -41 -7 -9 9 9 36 30
45 29 11 42 8 46 -12z m-1498 -8 c0 -5 -4 -10 -10 -10 -5 0 -10 5 -10 10 0 6
5 10 10 10 6 0 10 -4 10 -10z m-46 -9 c6 -8 -43 -35 -51 -28 -5 6 26 37 37 37
5 0 11 -4 14 -9z m-3962 -36 c0 -5 -5 -11 -11 -13 -6 -2 -11 4 -11 13 0 9 5
15 11 13 6 -2 11 -8 11 -13z m-201 -50 c10 -11 15 -22 13 -24 -6 -6 -74 61
-74 73 0 10 34 -17 61 -49z m5409 46 c0 -12 -138 -71 -166 -71 -34 0 -37 15
-6 30 20 9 125 40 170 49 1 1 2 -3 2 -8z m-5054 -87 c-11 -7 -22 -12 -25 -9
-2 3 4 12 15 19 10 8 21 12 24 9 3 -2 -4 -11 -14 -19z m-2537 -23 c11 -7 9
-10 -7 -15 -32 -11 -72 -46 -72 -64 0 -9 25 -40 56 -68 51 -46 55 -53 45 -72
-14 -26 -61 -52 -95 -52 -34 0 -108 30 -179 73 -70 43 -162 61 -256 51 -36 -3
-140 -24 -231 -45 -251 -58 -385 -67 -412 -27 -5 7 -6 25 -4 41 3 15 3 27 0
27 -2 0 -26 -11 -52 -24 -71 -36 -173 -76 -166 -65 3 5 36 25 72 43 233 116
502 182 812 199 133 8 476 6 489 -2z m1741 -20 c27 -19 58 -66 49 -75 -6 -6
-79 18 -130 44 -39 20 -50 44 -26 53 21 9 81 -4 107 -22z m5590 20 c0 -12 -20
-25 -27 -18 -7 7 6 27 18 27 5 0 9 -4 9 -9z m-5060 -32 c0 -6 -4 -7 -10 -4 -5
3 -10 11 -10 16 0 6 5 7 10 4 6 -3 10 -11 10 -16z m5640 -12 c0 -13 -15 -47
-33 -77 -32 -54 -33 -55 -85 -58 -47 -3 -52 -1 -52 18 0 30 27 67 78 106 54
41 92 45 92 11z m-5093 -73 c4 -10 -9 -31 -38 -60 l-45 -44 -39 13 c-48 17
-59 49 -23 69 68 38 135 49 145 22z m-422 -4 c3 -5 -1 -10 -9 -10 -9 0 -16 5
-16 10 0 6 4 10 9 10 6 0 13 -4 16 -10z m-1008 -6 c-3 -3 -12 -4 -19 -1 -8 3
-5 6 6 6 11 1 17 -2 13 -5z m44 -52 c-9 -25 -9 -24 -10 18 0 36 2 41 10 27 7
-12 7 -27 0 -45z m647 24 c42 -22 112 -91 112 -111 0 -26 -35 -16 -70 20 -26
27 -37 32 -47 23 -17 -14 -129 -4 -177 16 -41 17 -46 38 -13 61 29 21 147 16
195 -9z m-1793 -5 c3 -5 1 -12 -5 -16 -5 -3 -10 1 -10 9 0 18 6 21 15 7z
m1425 -16 c22 -23 -6 -19 -50 6 l-35 20 35 -6 c19 -3 41 -12 50 -20z m-1276
-97 c6 -22 5 -28 -7 -28 -26 0 -147 -40 -147 -49 0 -5 24 -19 53 -31 47 -21
62 -22 158 -17 72 4 109 3 117 -5 6 -6 48 -12 94 -13 65 -2 105 -10 183 -37
128 -45 168 -52 210 -38 31 10 60 51 77 109 5 17 109 -210 132 -288 9 -30 16
-65 16 -78 0 -32 -34 -63 -70 -63 -26 0 -30 -3 -30 -29 0 -44 -20 -54 -61 -31
-140 82 -201 90 -270 38 -41 -32 -53 -46 -63 -80 -2 -9 -36 -33 -74 -53 -38
-20 -82 -50 -98 -66 -26 -27 -29 -37 -27 -90 l1 -59 -37 0 c-97 0 -240 59
-307 126 -41 40 -43 41 -48 19 -9 -35 -56 -86 -94 -102 -30 -12 -37 -12 -58 2
-20 13 -24 24 -24 63 0 27 7 71 15 100 12 38 13 61 6 93 -6 27 -6 49 0 60 15
28 12 44 -6 29 -12 -10 -20 -8 -41 9 -34 26 -48 26 -164 -4 -116 -30 -123 -30
-115 -6 8 26 -16 42 -76 50 -29 3 -54 11 -56 18 -3 7 16 35 42 62 l47 50 66
-6 c87 -7 97 3 89 87 -6 73 9 97 68 110 22 5 41 7 43 5 2 -2 -1 -20 -8 -41
-17 -50 0 -106 43 -138 101 -76 242 -50 315 59 31 45 32 51 16 60 -55 32 -285
188 -290 197 -4 6 7 24 25 40 38 34 77 36 161 8 54 -18 64 -19 94 -6 18 7 44
29 57 47 l24 34 6 -45 c3 -25 9 -57 13 -72z m-1014 72 c0 -5 -4 -10 -9 -10 -5
0 -18 -3 -28 -6 -16 -5 -16 -4 1 10 23 18 36 20 36 6z m118 -12 c-5 -32 -28
-35 -28 -4 0 17 5 26 16 26 10 0 14 -7 12 -22z m2200 -38 c107 -27 216 -53
243 -56 43 -6 55 -13 89 -52 45 -51 50 -67 18 -58 -13 4 -61 10 -109 13 -91 6
-125 -3 -163 -46 -23 -26 -57 -27 -85 -3 -11 9 -42 48 -68 87 -35 50 -60 75
-93 92 -25 13 -58 34 -75 48 l-30 24 40 0 c22 1 127 -22 233 -49z m-53 40 c3
-5 -1 -10 -9 -10 -9 0 -16 5 -16 10 0 6 4 10 9 10 6 0 13 -4 16 -10z m2644
-51 c19 -85 9 -356 -11 -324 -4 6 -11 78 -17 160 -14 202 1 291 28 164z
m-5534 32 c3 -5 1 -12 -5 -16 -5 -3 -10 1 -10 9 0 18 6 21 15 7z m875 -29 c0
-15 -2 -15 -10 -2 -13 20 -13 33 0 25 6 -3 10 -14 10 -23z m2624 -14 c28 -39
17 -43 -19 -8 -19 19 -35 38 -35 42 0 14 38 -10 54 -34z m-3312 -13 c0 -5 -5
-11 -11 -13 -6 -2 -11 4 -11 13 0 9 5 15 11 13 6 -2 11 -8 11 -13z m172 5 c28
-10 35 -30 12 -30 -17 0 -66 39 -49 40 6 0 23 -4 37 -10z m3042 -105 c42 -87
43 -90 21 -93 -14 -3 -29 5 -44 22 -25 29 -53 114 -53 159 0 26 2 28 17 16 9
-8 36 -54 59 -104z m-3461 95 c-3 -5 -10 -10 -16 -10 -5 0 -9 5 -9 10 0 6 7
10 16 10 8 0 12 -4 9 -10z m1871 1 c-3 -5 -16 -11 -28 -14 -22 -6 -22 -5 -4 8
22 17 40 20 32 6z m1759 -15 c12 -9 16 -19 11 -32 -7 -18 -9 -18 -27 5 -31 38
-22 55 16 27z m-2790 -36 c-3 -5 -11 -10 -16 -10 -6 0 -7 5 -4 10 3 6 11 10
16 10 6 0 7 -4 4 -10z m-345 -30 c0 -12 -39 -19 -46 -9 -3 6 0 16 6 25 10 11
16 12 26 3 8 -6 14 -15 14 -19z m2065 0 c3 -5 -1 -10 -9 -10 -9 0 -16 5 -16
10 0 6 4 10 9 10 6 0 13 -4 16 -10z m1195 -13 c70 20 85 11 85 -53 0 -41 3
-49 18 -47 13 1 25 -12 38 -40 22 -50 24 -102 4 -137 -31 -54 -16 -102 60
-191 46 -54 58 -89 29 -89 -36 0 -124 129 -222 325 -64 128 -102 220 -102 242
1 16 3 15 19 -4 18 -21 19 -21 71 -6z m312 -63 c29 -86 33 -123 13 -130 -31
-12 -58 29 -63 95 -8 104 20 123 50 35z m5076 34 c14 -14 16 -28 2 -28 -5 0
-14 9 -20 20 -12 22 -1 27 18 8z m125 -13 c1 -5 -6 -11 -15 -13 -11 -2 -18 3
-18 13 0 17 30 18 33 0z m-8172 -23 c-14 -26 -59 -62 -77 -62 -29 0 -12 32 33
60 51 32 60 33 44 2z m7754 18 c3 -5 1 -10 -4 -10 -6 0 -11 5 -11 10 0 6 2 10
4 10 3 0 8 -4 11 -10z m2140 0 c-3 -5 -11 -10 -16 -10 -6 0 -7 5 -4 10 3 6 11
10 16 10 6 0 7 -4 4 -10z m-10750 -20 c-10 -11 -25 -20 -34 -20 -12 0 -9 6 9
20 33 26 48 26 25 0z m9048 -43 c-3 -6 -11 -3 -19 8 -7 10 -11 22 -7 28 3 6
11 3 19 -8 7 -10 11 -22 7 -28z m-6693 7 c0 -8 -4 -14 -9 -14 -11 0 -22 26
-14 34 9 9 23 -3 23 -20z m-1181 -19 c26 -13 41 -33 41 -56 0 -13 -90 -11
-129 2 -39 14 -41 44 -3 57 39 15 59 14 91 -3z m9205 -6 c-3 -5 -10 -7 -15 -3
-5 3 -7 10 -3 15 3 5 10 7 15 3 5 -3 7 -10 3 -15z m-6644 -5 c0 -8 -5 -12 -10
-9 -6 4 -8 11 -5 16 9 14 15 11 15 -7z m5598 -19 c54 -29 57 -32 43 -49 -8 -9
-20 -16 -29 -16 -22 0 -62 40 -62 62 0 22 12 23 48 3z m-105 -10 c1 -5 -6 -11
-15 -13 -11 -2 -18 3 -18 13 0 17 30 18 33 0z m-8838 -35 c-5 -8 -11 -8 -17
-2 -6 6 -7 16 -3 22 5 8 11 8 17 2 6 -6 7 -16 3 -22z m2137 -12 c-9 -9 -12 -7
-12 12 0 19 3 21 12 12 9 -9 9 -15 0 -24z m-2299 -10 c-13 -12 -26 -18 -30
-14 -4 4 1 14 11 22 31 22 43 17 19 -8z m8997 1 c0 -12 -50 -32 -59 -23 -8 8
39 45 50 38 5 -3 9 -10 9 -15z m210 -29 c0 -5 -2 -10 -4 -10 -3 0 -8 5 -11 10
-3 6 -1 10 4 10 6 0 11 -4 11 -10z m-6684 -27 c-10 -10 -19 5 -10 18 6 11 8
11 12 0 2 -7 1 -15 -2 -18z m-2262 -32 c7 -11 -22 -23 -35 -15 -5 3 -9 9 -9
15 0 12 37 12 44 0z m2056 -26 c0 -8 -4 -15 -10 -15 -5 0 -10 7 -10 15 0 8 5
15 10 15 6 0 10 -7 10 -15z m6595 5 c3 -5 3 -15 -1 -21 -6 -11 -23 6 -24 24 0
10 18 9 25 -3z m-6649 -77 c-11 -11 -17 4 -9 23 7 18 8 18 11 1 2 -10 1 -21
-2 -24z m-76 -47 c0 -3 -4 -8 -10 -11 -5 -3 -10 -1 -10 4 0 6 5 11 10 11 6 0
10 -2 10 -4z m8694 -27 c14 -11 24 -25 21 -30 -10 -14 -23 -11 -45 13 -37 40
-21 52 24 17z m-8529 1 c-3 -5 -10 -10 -16 -10 -5 0 -9 5 -9 10 0 6 7 10 16
10 8 0 12 -4 9 -10z m215 -10 c0 -5 -9 -10 -21 -10 -11 0 -17 5 -14 10 3 6 13
10 21 10 8 0 14 -4 14 -10z m-465 -57 c-7 -16 -9 -15 -15 7 -9 35 0 61 13 32
5 -11 6 -29 2 -39z m365 18 c13 -25 13 -34 0 -26 -16 10 -32 45 -21 45 6 0 15
-9 21 -19z m-311 -67 c-8 -20 -13 -24 -16 -13 -2 8 2 29 8 45 8 20 13 24 16
13 2 -8 -2 -29 -8 -45z m76 46 c3 -5 -3 -10 -14 -10 -12 0 -21 5 -21 10 0 6 6
10 14 10 8 0 18 -4 21 -10z m1304 -137 c1 -57 -10 -85 -27 -68 -10 9 -7 137 3
161 7 18 8 17 15 -6 5 -14 8 -53 9 -87z m-1119 87 c0 -5 -2 -10 -4 -10 -3 0
-8 5 -11 10 -3 6 -1 10 4 10 6 0 11 -4 11 -10z m-645 -30 c-19 -21 -50 -26
-60 -10 -11 18 6 30 42 30 35 0 36 0 18 -20z m475 -23 c0 -16 -18 3 -23 25 -6
22 -5 22 8 4 8 -11 15 -24 15 -29z m-392 21 c-3 -7 -13 -15 -24 -17 -16 -3
-17 -1 -5 13 16 19 34 21 29 4z m-868 -178 c14 -10 22 -21 19 -24 -2 -3 -18 6
-34 19 -35 29 -22 33 15 5z m2540 -15 c0 -37 -18 -85 -32 -85 -11 0 -10 23 3
76 14 52 29 58 29 9z m-47 -160 c-7 -21 -13 -19 -13 6 0 11 4 18 10 14 5 -3 7
-12 3 -20z m-877 -12 c-10 -10 -19 5 -10 18 6 11 8 11 12 0 2 -7 1 -15 -2 -18z
m-1836 -3 c0 -5 -4 -10 -10 -10 -5 0 -10 5 -10 10 0 6 5 10 10 10 6 0 10 -4
10 -10z m2754 -153 c-1 -28 -9 -79 -19 -112 -16 -56 -18 -58 -27 -35 -17 40
-16 194 1 214 24 29 46 -3 45 -67z m7219 26 c-7 -2 -21 -2 -30 0 -10 3 -4 5
12 5 17 0 24 -2 18 -5z m-179 -23 c-12 -12 -248 -71 -394 -99 -121 -23 -370
-55 -376 -48 -13 13 371 99 584 131 187 28 199 29 186 16z m306 -50 c0 -5 -2
-10 -4 -10 -3 0 -8 5 -11 10 -3 6 -1 10 4 10 6 0 11 -4 11 -10z m-1090 -19 c0
-5 -7 -11 -15 -15 -9 -3 -15 0 -15 9 0 8 7 15 15 15 8 0 15 -4 15 -9z m978 4
c-12 -13 -627 -125 -765 -141 -133 -14 -50 15 182 65 183 39 193 41 380 61
184 20 210 22 203 15z m-219 -125 c-75 -15 -165 -36 -200 -45 -102 -28 -157
-36 -202 -33 l-42 4 38 17 c65 30 156 49 322 67 223 25 241 22 84 -10z m-7184
1 c-3 -6 -11 -11 -17 -11 -6 0 -6 6 2 15 14 17 26 13 15 -4z m-65 -41 c-24
-15 -37 -11 -16 5 11 8 22 12 25 9 3 -3 -1 -9 -9 -14z m7521 2 c-7 -2 -18 1
-23 6 -8 8 -4 9 13 5 13 -4 18 -8 10 -11z m-124 -19 c-12 -11 -350 -70 -376
-65 -22 5 -23 6 -7 17 30 23 403 69 383 48z m-7327 -48 c-60 -64 -274 -189
-395 -230 -57 -20 -205 -31 -559 -41 -164 -5 -237 -4 -233 3 11 17 51 22 257
33 259 13 373 26 489 55 117 30 151 44 266 114 99 59 187 103 194 96 2 -3 -6
-16 -19 -30z m6634 5 c-56 -19 -192 -45 -200 -37 -7 6 193 56 226 56 17 0 9
-6 -26 -19z m776 -20 c13 -8 13 -10 -2 -10 -9 0 -20 5 -23 10 -8 13 5 13 25 0z
m-596 -9 c3 -5 0 -14 -7 -19 -17 -14 -187 -52 -229 -52 l-33 1 28 15 c24 13
120 45 172 57 35 8 64 7 69 -2z m466 -10 c0 -18 -341 -88 -570 -116 -108 -14
-10 29 139 60 62 13 195 33 386 58 17 2 33 5 38 6 4 0 7 -3 7 -8z m217 -57
c-3 -3 -12 -4 -19 -1 -8 3 -5 6 6 6 11 1 17 -2 13 -5z m-247 -33 c0 -11 -124
-37 -295 -61 -165 -23 -195 -24 -140 -4 42 16 225 49 347 63 40 5 76 9 81 10
4 0 7 -3 7 -8z m230 -61 c0 -5 -16 -10 -35 -10 -19 0 -35 5 -35 10 0 6 16 10
35 10 19 0 35 -4 35 -10z m-9065 -20 c17 -18 16 -19 -8 -25 -32 -8 -47 0 -47
26 0 25 31 25 55 -1z m8805 -35 c0 -8 -4 -17 -10 -20 -6 -4 -10 5 -10 20 0 15
4 24 10 20 6 -3 10 -12 10 -20z m-9430 -9 c0 -11 -19 -15 -25 -6 -3 5 1 10 9
10 9 0 16 -2 16 -4z m142 -11 c0 -5 -5 -11 -11 -13 -6 -2 -11 4 -11 13 0 9 5
15 11 13 6 -2 11 -8 11 -13z m728 5 c21 -7 17 -8 -20 -9 -25 0 -52 4 -60 9
-19 12 42 12 80 0z m-391 -21 c41 -5 76 -11 79 -13 8 -8 -190 -18 -235 -11
-69 10 -93 16 -93 25 0 21 87 20 249 -1z m221 -35 c20 -10 21 -13 7 -14 -19 0
-77 27 -77 36 0 7 38 -5 70 -22z m-555 -44 c3 -5 2 -10 -4 -10 -5 0 -13 5 -16
10 -3 6 -2 10 4 10 5 0 13 -4 16 -10z m-35 -90 c0 -5 -2 -10 -4 -10 -3 0 -8 5
-11 10 -3 6 -1 10 4 10 6 0 11 -4 11 -10z m235 -10 c3 -5 1 -10 -4 -10 -6 0
-11 5 -11 10 0 6 2 10 4 10 3 0 8 -4 11 -10z m-10 -90 c8 -13 -5 -13 -25 0
-13 8 -13 10 2 10 9 0 20 -4 23 -10z m3380 -281 c11 -17 -1 -21 -15 -4 -8 9
-8 15 -2 15 6 0 14 -5 17 -11z m1758 -663 c3 -8 -1 -20 -9 -26 -12 -10 -14 -8
-14 14 0 28 14 35 23 12z m87 -116 c127 -26 243 -63 213 -68 -23 -3 -265 47
-343 72 l-45 14 38 1 c22 1 83 -8 137 -19z m1367 -156 c-3 -3 -12 -4 -19 -1
-8 3 -5 6 6 6 11 1 17 -2 13 -5z m302 -6 c28 -6 51 -15 51 -20 0 -11 -181 -10
-199 1 -45 29 53 41 148 19z"/>
<path d="M8310 9854 c0 -14 4 -23 10 -19 6 3 10 15 10 26 0 10 -4 19 -10 19
-5 0 -10 -12 -10 -26z"/>
<path d="M4130 5461 c0 -10 61 -32 69 -24 8 6 -14 22 -41 28 -18 5 -28 3 -28
-4z"/>
<path d="M4204 5371 c7 -11 173 -81 192 -81 27 0 14 20 -26 40 -35 18 -140 50
-163 50 -4 0 -6 -4 -3 -9z"/>
<path d="M4120 4746 c0 -9 5 -16 10 -16 6 0 10 4 10 9 0 6 -4 13 -10 16 -5 3
-10 -1 -10 -9z"/>
<path d="M4320 4590 c0 -11 2 -20 4 -20 2 0 6 9 9 20 3 11 1 20 -4 20 -5 0 -9
-9 -9 -20z"/>
<path d="M8935 4680 c-4 -6 -3 -16 3 -22 6 -6 12 -6 17 2 4 6 3 16 -3 22 -6 6
-12 6 -17 -2z"/>
<path d="M1665 3570 c3 -5 13 -10 21 -10 8 0 12 5 9 10 -3 6 -13 10 -21 10 -8
0 -12 -4 -9 -10z"/>
<path d="M1910 3556 c0 -2 7 -9 15 -16 9 -7 15 -8 15 -2 0 5 -7 12 -15 16 -8
3 -15 4 -15 2z"/>
<path d="M2185 3530 c-7 -12 2 -30 16 -30 12 0 12 27 0 35 -5 3 -12 1 -16 -5z"/>
<path d="M1393 3515 c-3 -9 -3 -19 0 -22 17 -16 177 -10 177 7 0 28 -166 41
-177 15z"/>
<path d="M2555 3331 c-3 -5 -1 -12 5 -16 5 -3 10 1 10 9 0 18 -6 21 -15 7z"/>
<path d="M2732 3148 c5 -15 28 -18 29 -3 0 6 -7 12 -17 13 -10 3 -15 -1 -12
-10z"/>
<path d="M2346 2988 c-22 -29 -24 -35 -11 -48 13 -13 17 -12 34 5 11 11 23 32
26 48 10 39 -17 36 -49 -5z"/>
<path d="M3498 2873 c-10 -2 -18 -9 -18 -14 0 -15 43 -7 48 9 4 12 0 13 -30 5z"/>
<path d="M2446 2829 c-21 -30 -20 -39 3 -39 22 0 35 25 22 47 -7 13 -11 12
-25 -8z"/>
<path d="M2526 2701 c-4 -7 -5 -15 -2 -18 9 -9 19 4 14 18 -4 11 -6 11 -12 0z"/>
<path d="M4300 3325 c0 -2 10 -10 23 -16 20 -11 21 -11 8 4 -13 16 -31 23 -31
12z"/>
<path d="M7997 12512 c3 -12 9 -25 14 -28 14 -8 11 10 -6 32 -13 18 -14 18 -8
-4z"/>
<path d="M10770 8321 c0 -6 5 -13 10 -16 6 -3 10 1 10 9 0 9 -4 16 -10 16 -5
0 -10 -4 -10 -9z"/>
<path d="M2771 8304 c0 -11 3 -14 6 -6 3 7 2 16 -1 19 -3 4 -6 -2 -5 -13z"/>
<path d="M2794 8144 c28 -78 37 -97 42 -91 9 9 -25 104 -42 117 -12 11 -12 7
0 -26z"/>
<path d="M4882 8075 c-6 -14 -7 -25 -2 -25 9 0 25 39 18 46 -3 2 -10 -7 -16
-21z"/>
<path d="M2832 7958 c-6 -40 -34 -145 -63 -233 -33 -104 -52 -184 -55 -230 -5
-65 -3 -74 26 -123 55 -94 90 -63 160 143 67 195 76 187 72 -63 -5 -310 36
-442 196 -630 71 -83 382 -337 382 -312 0 5 7 10 16 10 10 0 13 -6 9 -19 -4
-13 2 -23 19 -35 25 -16 25 -16 35 22 6 20 11 42 11 49 0 6 3 14 8 16 4 3 8
-17 9 -45 3 -56 39 -131 65 -136 56 -11 303 222 430 403 42 61 134 200 205
310 71 110 152 232 181 270 156 212 208 312 238 458 19 88 6 157 -29 157 -6 0
-34 -24 -62 -53 -48 -51 -55 -55 -165 -87 -141 -40 -208 -69 -239 -104 -14
-14 -32 -26 -42 -26 -9 0 -20 -7 -23 -16 -4 -9 -13 -13 -24 -10 -10 4 -61 -3
-113 -14 -158 -33 -281 -43 -448 -37 -265 9 -440 63 -600 183 -62 47 -140 135
-172 196 l-15 29 -12 -73z m1161 -498 c14 -12 24 -27 21 -34 -3 -7 6 -42 20
-76 14 -35 24 -65 23 -67 -10 -9 -117 163 -117 187 0 16 25 12 53 -10z m507
-24 c0 -8 -4 -18 -10 -21 -5 -3 -10 3 -10 14 0 12 5 21 10 21 6 0 10 -6 10
-14z m-418 -53 c65 -68 126 -149 154 -206 57 -111 -9 -52 -124 113 -51 72 -92
133 -92 135 0 14 21 0 62 -42z m-495 -45 c-3 -8 -6 -5 -6 6 -1 11 2 17 5 13 3
-3 4 -12 1 -19z m418 -68 c3 -5 1 -10 -4 -10 -6 0 -11 5 -11 10 0 6 2 10 4 10
3 0 8 -4 11 -10z m-655 -10 c0 -5 -4 -10 -9 -10 -6 0 -13 5 -16 10 -3 6 1 10
9 10 9 0 16 -4 16 -10z m240 -705 c0 -8 -4 -15 -10 -15 -5 0 -7 7 -4 15 4 8 8
15 10 15 2 0 4 -7 4 -15z"/>
<path d="M4840 8009 c0 -5 5 -7 10 -4 6 3 10 8 10 11 0 2 -4 4 -10 4 -5 0 -10
-5 -10 -11z"/>
<path d="M10864 7995 c-11 -29 13 -130 51 -218 20 -45 41 -99 47 -119 18 -65
39 -41 53 59 8 60 -1 113 -19 113 -7 0 -27 32 -46 70 -19 39 -44 80 -57 92
-21 19 -23 20 -29 3z"/>
<path d="M8420 7711 c0 -6 5 -13 10 -16 6 -3 10 1 10 9 0 9 -4 16 -10 16 -5 0
-10 -4 -10 -9z"/>
<path d="M4779 7448 c-63 -81 -171 -240 -265 -390 -16 -26 -71 -101 -122 -168
-86 -111 -191 -284 -179 -296 7 -8 96 67 170 143 176 180 437 593 485 766 18
63 -11 45 -89 -55z"/>
<path d="M10386 7458 c18 -60 75 -166 103 -192 17 -17 31 -26 31 -20 0 26
-121 234 -136 234 -3 0 -2 -10 2 -22z"/>
<path d="M10245 7414 c-33 -19 -49 -32 -35 -28 27 7 110 52 110 59 0 10 -18 3
-75 -31z"/>
<path d="M2725 7211 c24 -102 105 -291 125 -291 15 0 12 22 -10 64 -10 22 -31
75 -46 120 -36 109 -61 166 -73 166 -5 0 -3 -25 4 -59z"/>
<path d="M10676 7161 c-4 -7 -5 -15 -2 -18 9 -9 19 4 14 18 -4 11 -6 11 -12 0z"/>
<path d="M10442 7077 c-77 -20 -82 -22 -55 -30 41 -14 59 -32 82 -88 12 -27
26 -49 31 -49 4 0 14 17 21 38 6 20 23 56 36 80 45 76 24 85 -115 49z"/>
<path d="M2821 6865 c-17 -15 -39 -50 -50 -81 -27 -70 -26 -72 5 -41 32 32 71
41 122 28 44 -12 120 -75 151 -124 45 -73 46 -174 2 -221 -27 -29 -27 -31 10
-31 68 0 63 -62 -17 -219 -25 -48 -42 -91 -39 -95 14 -13 191 -4 253 13 35 9
116 40 180 68 65 28 152 66 196 84 l78 32 -33 17 c-45 23 -165 104 -259 175
-41 31 -100 70 -130 86 -34 18 -109 81 -195 164 -129 125 -189 170 -228 170
-9 0 -29 -11 -46 -25z m329 -415 c0 -5 -4 -10 -10 -10 -5 0 -10 5 -10 10 0 6
5 10 10 10 6 0 10 -4 10 -10z m310 -165 c0 -16 -31 -63 -45 -68 -20 -8 -19 1
5 41 17 28 40 43 40 27z m-65 -94 c3 -5 1 -12 -5 -16 -5 -3 -10 1 -10 9 0 18
6 21 15 7z"/>
<path d="M1082 6692 c-9 -16 -10 -27 -3 -36 7 -9 5 -17 -9 -29 -17 -14 -20
-30 -20 -94 0 -43 4 -84 9 -91 11 -17 44 179 39 233 -3 39 -3 39 -16 17z"/>
<path d="M9308 6621 c-31 -10 -76 -29 -100 -43 -44 -24 -45 -24 -143 -11 -173
22 -233 -1 -162 -62 82 -71 401 -198 450 -179 8 3 29 32 47 65 17 32 35 59 40
59 5 0 12 -12 16 -27 15 -70 12 -69 71 -12 30 30 61 66 69 81 32 62 5 118 -67
138 -52 15 -158 11 -221 -9z m-130 -140 c4 -11 -2 -12 -24 -7 -45 11 -55 28
-15 24 19 -2 37 -9 39 -17z m222 -61 c0 -5 -2 -10 -4 -10 -3 0 -8 5 -11 10 -3
6 -1 10 4 10 6 0 11 -4 11 -10z"/>
<path d="M9753 6523 c-13 -20 -19 -53 -21 -130 -4 -91 -2 -103 12 -103 30 0
77 30 86 56 24 63 2 171 -39 193 -17 10 -23 7 -38 -16z"/>
<path d="M1012 6430 c0 -14 2 -19 5 -12 2 6 2 18 0 25 -3 6 -5 1 -5 -13z"/>
<path d="M2960 6365 c-14 -8 -20 -14 -15 -14 6 0 21 6 35 14 14 8 21 14 15 14
-5 0 -21 -6 -35 -14z"/>
<path d="M1015 6310 c-8 -16 -18 -51 -21 -77 -3 -27 -7 -61 -9 -78 -4 -22 -2
-26 5 -15 8 13 10 13 10 -2 0 -9 -4 -19 -9 -22 -4 -3 -11 -20 -15 -38 -3 -17
-13 -40 -22 -49 -12 -13 -29 -128 -70 -466 -71 -596 -138 -1092 -180 -1347
-24 -142 -32 -212 -25 -219 7 -7 16 4 29 34 24 55 44 137 37 148 -2 5 4 51 15
102 11 52 40 252 65 444 24 193 60 430 80 528 39 198 70 432 58 450 -4 7 -8
57 -9 111 -1 57 1 93 6 86 10 -16 8 -23 49 180 38 186 47 260 32 260 -6 0 -17
-13 -26 -30z"/>
<path d="M2852 6234 c-25 -17 -29 -46 -8 -63 11 -9 18 -6 35 15 36 45 17 79
-27 48z"/>
<path d="M4692 6199 c2 -6 8 -10 13 -10 5 0 11 4 13 10 2 6 -4 11 -13 11 -9 0
-15 -5 -13 -11z"/>
<path d="M2602 6100 c2 -8 16 -23 31 -34 21 -16 30 -17 39 -8 16 16 -5 38 -46
48 -22 5 -28 4 -24 -6z"/>
<path d="M4845 6101 c-3 -5 -1 -12 5 -16 5 -3 10 1 10 9 0 18 -6 21 -15 7z"/>
<path d="M10090 5810 c0 -5 5 -10 10 -10 6 0 10 5 10 10 0 6 -4 10 -10 10 -5
0 -10 -4 -10 -10z"/>
<path d="M10101 5789 c-22 -20 -23 -28 -19 -108 4 -77 10 -97 56 -200 29 -62
78 -150 111 -195 32 -44 68 -100 80 -123 25 -49 39 -60 47 -38 10 26 -11 111
-86 340 -37 116 -71 221 -74 235 -5 25 -71 110 -85 110 -4 0 -18 -10 -30 -21z
m20 -111 c11 -21 11 -22 -4 -9 -10 7 -17 17 -17 22 0 15 9 10 21 -13z"/>
<path d="M10035 5730 c-3 -5 1 -10 10 -10 9 0 13 5 10 10 -3 6 -8 10 -10 10
-2 0 -7 -4 -10 -10z"/>
<path d="M9980 5596 c0 -14 5 -28 10 -31 6 -3 10 5 10 19 0 14 -4 28 -10 31
-6 3 -10 -5 -10 -19z"/>
<path d="M10010 5523 c0 -10 5 -25 10 -33 8 -12 10 -9 10 12 0 15 -4 30 -10
33 -5 3 -10 -2 -10 -12z"/>
<path d="M10040 5416 c0 -9 5 -16 10 -16 6 0 10 4 10 9 0 6 -4 13 -10 16 -5 3
-10 -1 -10 -9z"/>
<path d="M10095 5290 c-3 -5 1 -10 10 -10 9 0 13 5 10 10 -3 6 -8 10 -10 10
-2 0 -7 -4 -10 -10z"/>
<path d="M874 5025 c-3 -14 -4 -28 -1 -31 10 -10 27 7 27 26 0 30 -19 33 -26
5z"/>
<path d="M881 4954 c0 -11 3 -14 6 -6 3 7 2 16 -1 19 -3 4 -6 -2 -5 -13z"/>
<path d="M870 4880 c0 -5 5 -10 10 -10 6 0 10 5 10 10 0 6 -4 10 -10 10 -5 0
-10 -4 -10 -10z"/>
<path d="M858 4785 c-2 -19 0 -41 4 -48 4 -7 8 9 8 36 0 55 -6 62 -12 12z"/>
<path d="M855 4690 c-3 -5 -1 -10 4 -10 6 0 11 5 11 10 0 6 -2 10 -4 10 -3 0
-8 -4 -11 -10z"/>
<path d="M846 4651 c-4 -7 -5 -15 -2 -18 9 -9 19 4 14 18 -4 11 -6 11 -12 0z"/>
<path d="M831 4571 c-6 -10 -13 -38 -16 -62 l-6 -44 19 35 c24 44 36 90 23 90
-6 0 -15 -8 -20 -19z"/>
<path d="M9460 4440 c0 -5 5 -10 10 -10 6 0 10 5 10 10 0 6 -4 10 -10 10 -5 0
-10 -4 -10 -10z"/>
<path d="M10910 4411 c0 -13 32 -47 63 -66 38 -24 34 -3 -8 40 -35 34 -55 44
-55 26z"/>
<path d="M801 4364 c0 -11 3 -14 6 -6 3 7 2 16 -1 19 -3 4 -6 -2 -5 -13z"/>
<path d="M10700 4336 c0 -2 7 -7 16 -10 8 -3 12 -2 9 4 -6 10 -25 14 -25 6z"/>
<path d="M11033 4314 c-3 -10 11 -52 38 -105 40 -83 59 -107 59 -76 0 24 21
36 47 26 22 -8 23 -7 12 12 -9 17 -8 20 2 17 8 -3 16 -14 19 -27 3 -12 21 -32
40 -44 33 -20 32 -18 -19 42 -52 59 -145 146 -177 164 -9 5 -16 2 -21 -9z"/>
<path d="M11216 4091 c-3 -5 1 -11 9 -15 15 -6 29 7 18 18 -9 9 -21 8 -27 -3z"/>
<path d="M10010 4064 c-150 -22 -172 -28 -150 -36 38 -14 405 15 416 33 5 9
-213 10 -266 3z"/>
<path d="M641 3883 c-7 -42 -17 -86 -21 -97 -8 -19 -9 -18 -10 9 -1 24 -6 16
-21 -35 -11 -36 -18 -81 -16 -100 6 -44 -21 -160 -37 -157 -7 1 -12 -17 -12
-48 -1 -27 -5 -71 -9 -97 -8 -50 0 -102 14 -94 5 3 14 36 21 73 7 38 23 102
35 143 35 115 38 135 20 150 -18 15 -19 30 -3 82 8 27 14 35 20 26 12 -18 46
24 54 68 7 38 -3 141 -15 148 -4 3 -13 -29 -20 -71z m-86 -402 c3 -5 1 -12 -5
-16 -5 -3 -10 1 -10 9 0 18 6 21 15 7z"/>
<path d="M10787 3744 c-8 -8 1 -24 14 -24 5 0 9 7 9 15 0 15 -12 20 -23 9z"/>
<path d="M10634 3681 c-23 -10 -36 -34 -28 -54 3 -10 23 -11 82 -6 109 10 137
25 93 48 -27 15 -122 22 -147 12z"/>
<path d="M10495 3641 c-3 -5 -1 -12 5 -16 5 -3 10 1 10 9 0 18 -6 21 -15 7z"/>
<path d="M10395 3567 c-21 -18 -25 -26 -14 -27 22 0 52 25 47 40 -3 9 -13 5
-33 -13z"/>
<path d="M10620 3574 c0 -8 5 -12 10 -9 6 3 10 10 10 16 0 5 -4 9 -10 9 -5 0
-10 -7 -10 -16z"/>
<path d="M10730 3552 c0 -5 9 -17 20 -27 22 -20 26 -9 6 18 -14 18 -26 22 -26
9z"/>
<path d="M10690 3500 c0 -5 7 -10 15 -10 8 0 15 5 15 10 0 6 -7 10 -15 10 -8
0 -15 -4 -15 -10z"/>
<path d="M10958 3493 c7 -3 16 -2 19 1 4 3 -2 6 -13 5 -11 0 -14 -3 -6 -6z"/>
<path d="M10557 3458 c-7 -24 12 -43 26 -29 12 12 5 43 -9 48 -6 2 -14 -6 -17
-19z"/>
<path d="M10700 3461 c0 -14 23 -28 57 -34 45 -9 50 7 9 27 -37 18 -66 21 -66
7z"/>
<path d="M11925 3440 c3 -5 13 -10 21 -10 8 0 12 5 9 10 -3 6 -13 10 -21 10
-8 0 -12 -4 -9 -10z"/>
<path d="M11785 3421 c-3 -5 -1 -12 5 -16 5 -3 10 1 10 9 0 18 -6 21 -15 7z"/>
<path d="M10524 3365 c-4 -8 1 -26 10 -40 12 -19 25 -25 51 -25 43 0 50 12 22
38 -34 32 -76 45 -83 27z"/>
<path d="M11695 3361 c-3 -5 -1 -12 5 -16 5 -3 10 1 10 9 0 18 -6 21 -15 7z"/>
<path d="M10790 3326 c0 -9 5 -16 10 -16 6 0 10 4 10 9 0 6 -4 13 -10 16 -5 3
-10 -1 -10 -9z"/>
<path d="M10467 3314 c-11 -11 -8 -72 4 -80 6 -3 18 1 27 10 12 12 14 22 6 43
-9 27 -25 39 -37 27z"/>
<path d="M10690 3253 c-14 -2 -36 -13 -50 -23 l-25 -20 30 1 c45 1 126 23 128
34 2 11 -42 15 -83 8z"/>
<path d="M10526 3233 c-12 -12 -6 -33 9 -33 8 0 15 6 15 14 0 17 -14 28 -24
19z"/>
<path d="M11310 2779 c0 -5 5 -7 10 -4 6 3 10 8 10 11 0 2 -4 4 -10 4 -5 0
-10 -5 -10 -11z"/>
<path d="M12000 2211 c0 -6 5 -13 10 -16 6 -3 10 1 10 9 0 9 -4 16 -10 16 -5
0 -10 -4 -10 -9z"/>
<path d="M8466 282 c-3 -6 -1 -14 5 -17 15 -10 25 3 12 16 -7 7 -13 7 -17 1z"/>
<path d="M10230 75 c0 -2 10 -10 23 -16 20 -11 21 -11 8 4 -13 16 -31 23 -31
12z"/>
<path d="M11290 11 c-24 -7 409 -3 440 3 8 2 -82 4 -200 4 -118 0 -226 -3
-240 -7z"/>
<path d="M10358 3 c12 -2 32 -2 45 0 12 2 2 4 -23 4 -25 0 -35 -2 -22 -4z"/>
<path d="M10988 3 c12 -2 32 -2 45 0 12 2 2 4 -23 4 -25 0 -35 -2 -22 -4z"/>
</g>
</svg>
