<?xml version="1.0" encoding="utf-8"?>
<!-- Svg Vector Icons : http://www.onlinewebfonts.com/icon -->
<!DOCTYPE svg PUBLIC "-//W3C//DTD SVG 1.1//EN" "http://www.w3.org/Graphics/SVG/1.1/DTD/svg11.dtd">
<svg version="1.1" xmlns="http://www.w3.org/2000/svg" xmlns:xlink="http://www.w3.org/1999/xlink" x="0px" y="0px" viewBox="0 0 1000 1000" enable-background="new 0 0 1000 1000" xml:space="preserve">
<metadata> Svg Vector Icons : http://www.onlinewebfonts.com/icon </metadata>
<g><g transform="translate(0.000000,512.000000) scale(0.100000,-0.100000)"><path d="M4467.8,4931.9c-84.2-90-84.2-90-72.8-197.2c17.2-147.4,158.9-775.4,323.6-1443.5l139.8-559l178.1,449.9c312.1,785,576.3,1533.5,576.3,1625.4c0,23-36.4,78.5-82.3,126.4l-84.2,86.2H5000h-446.1L4467.8,4931.9z"/><path d="M3334.4,4321.2c-162.7-24.9-331.2-55.5-373.3-67c-247-74.7-493.9-273.8-608.8-493.9c-88.1-166.6-91.9-187.6-204.9-817.5c-379.1-2134.7-612.6-3861.6-612.6-4531.7c0-201,1.9-208.7,55.5-268l55.5-63.2l442.3-5.7c243.1-3.8,442.3-11.5,442.3-19.2s-42.1-516.9-93.8-1131.5c-57.4-691.1-88.1-1135.3-78.5-1162.1c34.5-91.9,93.8-118.7,419.3-197.2c426.9-103.4,911.3-201,1236.8-248.9c147.4-23,291-46,321.6-49.8l51.7-7.7v3164.7v3164.7l103.4,248.9l101.5,247l-608.8,712.2c-568.6,664.3-610.7,717.9-610.7,785c0,76.6,78.5,241.2,279.5,593.5c57.4,99.6,103.4,181.9,103.4,187.6C3755.6,4376.7,3627.3,4365.2,3334.4,4321.2z M3669.4-1849.3c216.3-111,252.7-137.9,283.3-199.1c30.6-61.3,32.5-82.3,13.4-141.7c-24.9-72.8-114.9-141.7-187.6-141.7c-23,0-160.8,59.3-306.3,132.1c-279.5,139.7-310.2,168.5-310.2,291c0,42.1,19.1,78.5,65.1,124.4C3322.9-1688.5,3374.6-1696.1,3669.4-1849.3z"/><path d="M6321,4359.5c0-5.7,21.1-51.7,46-101.5c114.9-225.9,260.4-605,260.4-675.8c0-84.2,84.2,15.3-1137.2-1338.2l-698.8-775.4l3.8-3120.7l3.8-3120.7l162.7-5.7c442.3-17.2,1322.9,116.8,2261,342.7c323.6,78.5,384.8,105.3,419.3,197.2c9.6,24.9-21.1,472.9-78.5,1150.6c-51.7,610.8-93.8,1121.9-93.8,1135.3c0,17.2,93.8,23,402,23c574.4,0,593.5,11.5,593.5,344.6c0,585.8-180,1979.6-488.2,3800.3c-202.9,1194.7-231.7,1342.1-306.3,1499.1c-113,239.3-337,436.5-601.2,530.3c-42.1,13.4-204.8,44-359.9,67c-155.1,21.1-306.3,44-335,49.8C6344,4367.1,6321,4367.1,6321,4359.5z M5488.2,915.3c67-28.7,124.4-113,124.4-183.8c0-70.8-57.4-155.1-128.3-183.8c-185.7-78.5-358,147.4-233.6,306.3C5319.7,940.2,5384.8,957.4,5488.2,915.3z M5488.2-310c67-28.7,124.4-112.9,124.4-183.8c0-70.9-57.4-155.1-128.3-183.8c-185.7-78.5-358,147.4-233.6,306.3C5319.7-285.1,5384.8-267.9,5488.2-310z M6759.5-1768.9c109.1-91.9,91.9-275.7-30.6-331.2c-24.9-11.5-237.4-68.9-471-128.2c-469.1-116.8-516.9-118.7-595.4-24.9c-84.2,99.6-51.7,256.5,63.2,304.4c91.9,38.3,846.2,225.9,915.1,227.8C6679-1719.1,6721.2-1736.3,6759.5-1768.9z"/><path d="M5832.8,4137.4c-65.1-195.3-308.2-840.5-467.1-1240.6c-65.1-160.8-116.8-296.7-112.9-298.7c7.6-5.7,880.7,963,913.2,1012.8c23,38.3,11.5,70.8-101.5,331.2C5886.4,4342.3,5897.9,4332.7,5832.8,4137.4z"/><path d="M4054.2,4057c-19.1-34.5-82.3-145.5-139.8-247l-103.4-187.6l271.9-315.9c149.3-174.2,275.7-312.1,279.5-308.2c3.8,3.8-30.6,160.8-78.5,348.4c-45.9,189.5-103.4,428.9-126.4,534.2C4102.1,4125.9,4098.3,4131.7,4054.2,4057z"/></g></g>
</svg>