<?xml version="1.0" standalone="no"?>
<!DOCTYPE svg PUBLIC "-//W3C//DTD SVG 20010904//EN"
 "http://www.w3.org/TR/2001/REC-SVG-20010904/DTD/svg10.dtd">
<svg version="1.0" xmlns="http://www.w3.org/2000/svg"
 width="1280.000000pt" height="1023.000000pt" viewBox="0 0 1280.000000 1023.000000"
 preserveAspectRatio="xMidYMid meet">
<metadata>
Created by potrace 1.15, written by Peter Selinger 2001-2017
</metadata>
<g transform="translate(0.000000,1023.000000) scale(0.100000,-0.100000)"
fill="#8e7171" stroke="none">
<path d="M5470 10224 c-8 -4 -24 -14 -35 -23 -11 -10 -53 -37 -93 -60 -238
-138 -483 -398 -737 -781 -248 -375 -438 -734 -881 -1670 -182 -386 -466 -956
-569 -1145 -320 -582 -651 -1027 -1114 -1499 -228 -231 -402 -390 -701 -642
-257 -217 -272 -231 -386 -359 -49 -55 -142 -157 -207 -228 -436 -474 -633
-756 -704 -1002 -20 -70 -18 -493 3 -612 18 -108 47 -195 83 -254 22 -36 39
-93 69 -240 99 -470 151 -709 156 -718 17 -27 317 -176 494 -246 180 -71 335
-117 518 -154 262 -54 381 -65 684 -65 287 0 374 8 700 58 85 14 198 27 250
31 224 14 373 77 507 213 127 130 212 299 273 547 57 231 76 433 85 880 5 217
11 323 20 355 75 245 137 582 170 911 46 464 298 1120 711 1854 108 192 276
468 357 590 l45 67 7 -99 c10 -127 -1 -1689 -15 -2113 -25 -800 -66 -1425
-119 -1860 -10 -80 -17 -146 -16 -148 1 -1 71 -22 156 -47 172 -51 191 -51
243 -2 32 31 34 37 41 122 145 1924 578 4201 1005 5279 58 148 65 160 106 189
36 25 53 50 98 141 159 321 197 654 114 1026 -72 328 -276 721 -555 1071 -118
148 -306 353 -403 441 -39 34 -82 80 -96 100 -34 49 -111 86 -189 93 -33 2
-67 2 -75 -1z"/>
<path d="M11683 9301 c-184 -68 -515 -343 -813 -676 -491 -549 -945 -1237
-1727 -2620 -237 -419 -352 -598 -570 -888 -275 -364 -628 -748 -1008 -1093
-121 -109 -446 -392 -505 -439 -21 -16 -89 -93 -151 -170 -236 -295 -380 -444
-586 -608 -284 -226 -373 -449 -318 -804 29 -187 47 -259 101 -403 30 -79 54
-151 54 -159 0 -36 183 -898 195 -916 15 -24 188 -115 340 -180 388 -165 834
-265 1435 -322 255 -24 953 -24 1220 0 102 9 241 22 310 27 69 6 164 20 212
31 249 58 447 227 578 494 127 259 186 549 196 960 5 188 10 251 40 430 86
517 218 1114 357 1610 l42 150 7 -200 c22 -578 -23 -1499 -103 -2138 -12 -92
-20 -169 -18 -171 2 -1 75 -22 161 -45 l157 -43 43 21 c53 25 78 65 78 124 0
128 75 862 136 1322 199 1518 491 2833 806 3633 53 136 75 176 196 360 76 114
161 251 190 305 l54 97 5 137 c21 538 -180 1182 -539 1726 -117 177 -311 429
-326 425 -4 -2 -20 6 -36 17 -42 28 -145 31 -213 6z"/>
</g>
</svg>
