<?xml version="1.0" standalone="no"?>
<!DOCTYPE svg PUBLIC "-//W3C//DTD SVG 20010904//EN"
 "http://www.w3.org/TR/2001/REC-SVG-20010904/DTD/svg10.dtd">
<svg version="1.0" xmlns="http://www.w3.org/2000/svg"
 width="884.000000pt" height="1280.000000pt" viewBox="0 0 884.000000 1280.000000"
 preserveAspectRatio="xMidYMid meet">
<metadata>
Created by potrace 1.15, written by Peter Selinger 2001-2017
</metadata>
<g transform="translate(0.000000,1280.000000) scale(0.100000,-0.100000)"
fill="#8e7171" stroke="none">
<path d="M5017 12468 c-4 -255 -9 -338 -22 -393 -9 -38 -19 -80 -22 -93 -4
-17 -2 -21 11 -16 27 10 19 -15 -38 -115 -30 -53 -71 -139 -92 -191 -21 -52
-96 -212 -168 -355 -124 -245 -152 -311 -176 -412 -6 -23 -23 -56 -37 -74
l-27 -31 32 7 c39 8 43 -11 9 -43 -45 -43 -100 -22 -112 42 -4 18 -20 48 -37
66 -26 29 -29 39 -24 70 5 32 3 38 -19 48 -16 7 -28 25 -35 53 -13 46 -46 116
-138 291 -34 65 -62 128 -62 141 0 16 -9 26 -28 33 -23 9 -32 23 -46 65 -19
57 -122 260 -188 368 -22 35 -44 75 -49 88 -22 59 -76 417 -95 625 -8 96 -21
111 -97 111 -59 0 -96 -18 -117 -58 -9 -17 -22 -25 -39 -25 -30 0 -110 -37
-226 -104 -44 -26 -102 -53 -128 -61 -61 -18 -100 -42 -205 -123 -93 -72 -252
-220 -284 -265 -12 -16 -25 -48 -29 -71 -5 -22 -15 -257 -24 -521 -16 -529
-30 -730 -52 -790 -30 -81 -43 -175 -51 -375 -14 -310 -8 -340 92 -475 75
-100 113 -172 132 -246 20 -80 43 -126 104 -209 77 -106 77 -105 40 -157 l-31
-45 34 21 c44 27 68 27 96 -3 70 -74 77 -326 15 -514 -26 -80 -51 -122 -113
-197 -23 -27 -51 -69 -62 -93 -20 -40 -24 -43 -51 -37 -25 6 -30 3 -35 -15 -5
-18 -11 -21 -37 -16 -31 6 -32 5 -28 -26 3 -31 -8 -45 -146 -189 -160 -167
-196 -214 -218 -289 -16 -55 -45 -87 -109 -120 -57 -29 -95 -64 -95 -86 0 -14
4 -13 35 5 58 34 40 7 -56 -82 -88 -83 -90 -85 -84 -121 8 -39 7 -40 -58 -51
l-38 -6 25 -20 c47 -37 25 -129 -30 -129 -27 0 -28 3 -14 31 8 15 7 19 -4 19
-21 0 -45 -37 -39 -60 4 -14 -2 -22 -21 -30 -27 -10 -44 -35 -31 -48 3 -4 29
6 57 21 l51 29 -7 -33 c-11 -58 -69 -163 -101 -184 -24 -15 -31 -27 -31 -50 0
-17 -25 -85 -57 -151 -31 -65 -59 -132 -62 -149 -15 -66 -15 -67 -45 -62 -27
6 -28 5 -23 -33 8 -57 -7 -107 -117 -385 -96 -243 -167 -472 -324 -1045 -71
-260 -83 -308 -106 -420 -12 -58 -53 -193 -91 -300 -77 -215 -126 -376 -158
-520 -11 -52 -37 -167 -56 -255 -19 -88 -60 -241 -90 -340 -90 -291 -123 -426
-166 -685 -22 -135 -49 -281 -60 -325 -27 -109 -158 -374 -209 -424 -37 -36
-38 -39 -61 -180 -21 -128 -22 -145 -8 -169 37 -66 128 -99 319 -113 204 -15
362 -59 438 -123 25 -22 49 -30 110 -38 47 -7 82 -17 89 -26 9 -11 13 -54 13
-132 l0 -117 257 1 c243 1 260 0 293 -20 45 -26 76 -72 89 -134 6 -27 17 -136
26 -242 8 -106 18 -216 21 -244 l5 -51 192 -7 c294 -11 434 -43 541 -125 73
-54 114 -65 241 -65 87 0 122 5 165 21 30 12 75 28 99 38 106 39 342 45 382 9
15 -13 19 -31 19 -81 l0 -64 228 6 c609 17 739 49 758 190 10 78 14 86 46 99
l31 13 -32 19 c-34 20 -39 39 -16 71 29 41 101 54 355 60 295 7 548 -8 594
-36 17 -10 41 -22 54 -26 31 -9 29 18 -3 33 -36 17 -31 31 8 23 53 -13 105
-41 123 -68 9 -15 19 -58 23 -105 9 -109 8 -108 193 -108 l148 0 0 130 0 130
103 0 c140 0 280 -16 355 -40 35 -11 132 -52 216 -90 268 -121 338 -132 846
-134 398 -1 405 0 493 57 49 34 61 52 62 102 0 25 4 31 28 33 35 4 34 13 -3
36 -34 20 -31 36 6 36 40 0 60 16 80 62 15 37 18 74 18 278 1 213 3 238 20
263 16 24 18 43 15 170 l-4 142 75 3 c50 2 80 8 92 18 12 12 27 14 59 9 54 -9
59 0 52 91 -3 39 -3 83 1 97 6 27 33 40 176 87 112 36 313 110 322 119 23 20
-85 493 -222 973 -87 303 -106 360 -167 482 -52 104 -66 160 -52 216 2 8 -1
14 -8 13 -18 -4 -47 39 -76 109 -144 352 -197 502 -197 564 0 16 -23 74 -50
129 -37 74 -64 151 -104 300 -56 206 -124 392 -286 785 -51 124 -102 247 -112
274 l-19 48 25 -6 c34 -8 40 7 15 39 -15 18 -28 25 -41 21 -18 -4 -19 -1 -14
30 6 29 3 39 -20 62 -46 48 -124 261 -124 341 0 23 -14 58 -39 100 -22 36 -70
134 -106 216 -90 204 -273 570 -337 678 -76 126 -278 412 -348 493 -134 154
-137 159 -170 264 -26 85 -39 110 -84 163 -121 143 -200 267 -220 345 -11 40
-16 47 -46 55 -55 14 -127 73 -153 125 -12 25 -29 48 -36 50 -10 3 -11 0 -1
-18 13 -25 2 -44 -22 -35 -49 19 -78 203 -60 382 22 221 75 363 193 518 69 91
94 135 103 185 3 19 48 118 99 220 154 307 257 660 277 950 5 69 16 159 26
200 23 102 28 160 15 160 -18 0 -32 38 -41 119 -16 138 -128 448 -251 694
-110 220 -156 268 -342 361 -73 36 -181 83 -241 106 -146 54 -386 179 -482
251 -44 32 -82 59 -85 59 -4 0 -9 -145 -12 -322z"/>
</g>
</svg>
