<?xml version="1.0" standalone="no"?>
<!DOCTYPE svg PUBLIC "-//W3C//DTD SVG 20010904//EN"
 "http://www.w3.org/TR/2001/REC-SVG-20010904/DTD/svg10.dtd">
<svg version="1.0" xmlns="http://www.w3.org/2000/svg"
 width="1280.000000pt" height="858.000000pt" viewBox="0 0 1280.000000 858.000000"
 preserveAspectRatio="xMidYMid meet">
<metadata>
Created by potrace 1.15, written by Peter Selinger 2001-2017
</metadata>
<g transform="translate(0.000000,858.000000) scale(0.100000,-0.100000)"
fill="#8e7171" stroke="none">
<path d="M7100 8549 c-56 -135 -260 -344 -496 -507 l-61 -43 -58 36 c-70 42
-113 55 -180 55 -136 0 -429 -130 -470 -209 -22 -43 -19 -59 15 -93 21 -21 28
-34 21 -42 -5 -6 -11 -31 -13 -54 l-3 -43 -146 -79 c-138 -74 -148 -78 -185
-69 -69 15 -109 11 -137 -15 -24 -23 -32 -39 -39 -91 -2 -15 -58 -49 -214
-133 l-211 -112 -91 13 c-50 8 -105 12 -122 9 -44 -6 -75 -50 -91 -127 l-13
-66 -253 -135 -254 -136 -108 7 -108 7 -32 -28 c-23 -22 -34 -44 -44 -89 l-12
-60 -334 -179 c-297 -159 -341 -180 -395 -185 -78 -9 -100 -21 -120 -70 -8
-22 -26 -45 -38 -52 -13 -7 -111 -69 -218 -138 -237 -153 -392 -234 -485 -251
-80 -15 -159 -10 -520 31 -143 16 -325 32 -405 36 -195 8 -269 -5 -385 -63
-414 -210 -497 -302 -565 -626 -18 -85 -26 -109 -42 -114 -43 -13 -130 -150
-191 -300 -52 -129 -97 -349 -97 -475 0 -46 2 -49 73 -114 101 -95 257 -208
408 -299 438 -264 1136 -555 1614 -675 188 -47 621 -141 785 -171 182 -33 169
-28 132 -50 -121 -74 -281 -423 -388 -842 -33 -131 -34 -143 -25 -216 6 -42
13 -160 16 -261 9 -316 35 -451 119 -626 65 -132 142 -213 260 -270 246 -118
952 -326 1480 -435 578 -119 1023 -171 1611 -190 1301 -41 1927 41 2773 364
306 117 523 218 642 299 65 45 165 143 199 196 36 56 82 168 112 276 31 106
34 312 6 362 -17 31 -16 33 4 65 l21 33 -7 -40 c-4 -24 -3 -36 2 -30 5 6 46
54 92 107 159 188 278 281 463 364 120 54 126 55 248 64 94 6 149 16 221 38
473 149 1278 525 1636 764 272 182 298 240 298 658 0 269 -28 600 -76 925
l-12 80 -17 -50 c-22 -63 -18 -80 -74 310 -67 461 -182 1252 -217 1485 -57
385 -104 525 -276 814 -81 137 -105 189 -139 308 -64 226 -136 287 -409 348
-124 27 -219 57 -545 173 -161 56 -357 48 -579 -26 l-94 -31 -16 24 c-9 13
-41 50 -72 81 -136 138 -527 266 -703 229 -43 -9 -71 -23 -113 -57 -66 -54
-260 -181 -431 -283 l-123 -73 -217 6 c-242 7 -313 -2 -412 -50 -73 -36 -196
-160 -245 -245 -39 -68 -53 -78 -110 -78 -17 0 -62 -9 -100 -19 -67 -19 -70
-19 -104 -1 -20 10 -48 31 -63 47 -98 104 -121 143 -138 231 -8 45 -7 48 39
107 111 140 166 259 165 360 -1 144 -83 214 -419 360 -71 31 -134 61 -139 66
-19 18 -44 9 -56 -22z m-718 -620 c25 -13 18 -22 -48 -59 -47 -28 -61 -31
-102 -26 -51 6 -111 24 -125 36 -9 8 76 43 142 60 40 10 104 5 133 -11z m5763
-4134 c-39 -32 -153 -112 -140 -97 13 14 159 121 165 121 3 0 -8 -11 -25 -24z"/>
</g>
</svg>
