<?xml version="1.0" standalone="no"?>
<!DOCTYPE svg PUBLIC "-//W3C//DTD SVG 20010904//EN"
 "http://www.w3.org/TR/2001/REC-SVG-20010904/DTD/svg10.dtd">
<svg version="1.0" xmlns="http://www.w3.org/2000/svg"
 width="1174.000000pt" height="1280.000000pt" viewBox="0 0 1174.000000 1280.000000"
 preserveAspectRatio="xMidYMid meet">
<metadata>
Created by potrace 1.15, written by Peter Selinger 2001-2017
</metadata>
<g transform="translate(0.000000,1280.000000) scale(0.100000,-0.100000)"
fill="#000000" stroke="none">
<path d="M4425 12777 c-33 -13 -100 -45 -150 -71 -379 -205 -660 -325 -1163
-497 -373 -127 -591 -189 -982 -279 -288 -67 -505 -172 -631 -306 -96 -103
-206 -267 -284 -424 -74 -146 -225 -631 -225 -720 0 -46 -33 -122 -85 -197
-57 -80 -108 -180 -125 -243 -7 -25 -18 -91 -25 -147 -11 -93 -16 -106 -45
-140 -74 -83 -112 -218 -125 -443 -14 -224 -31 -299 -160 -715 -208 -666 -337
-1170 -379 -1470 -23 -170 -40 -450 -41 -665 0 -177 2 -198 20 -229 14 -24 33
-38 60 -47 22 -7 101 -34 175 -60 494 -172 676 -225 830 -243 47 -6 171 -15
275 -21 553 -30 550 -30 628 -94 23 -19 75 -50 115 -69 40 -20 79 -41 87 -47
31 -25 13 -119 -73 -390 -68 -214 -77 -270 -76 -495 0 -192 16 -350 44 -445
18 -62 11 -117 -35 -259 -112 -349 -113 -554 -5 -821 23 -58 55 -138 71 -177
48 -120 48 -167 0 -310 -67 -202 -76 -331 -33 -468 25 -76 39 -266 52 -720 13
-415 25 -626 45 -738 27 -155 83 -358 110 -399 49 -73 47 -73 525 -73 550 -1
623 -10 1165 -155 339 -91 577 -141 775 -164 74 -9 172 -21 216 -27 120 -17
1068 -5 1274 16 501 50 805 136 1575 445 578 232 843 312 1155 350 140 17 267
39 295 52 28 13 47 56 66 153 21 108 18 684 -4 880 -22 184 -49 322 -82 414
-14 37 -25 85 -25 105 0 22 29 111 70 218 122 312 150 436 150 668 0 179 -9
228 -60 346 -52 118 -52 173 -5 435 53 291 63 427 71 987 l7 502 119 0 c216 0
330 38 475 159 45 37 105 78 135 89 29 12 139 40 244 61 246 51 330 72 543
133 452 128 734 261 757 354 8 30 -36 259 -87 454 -85 324 -342 1165 -504
1650 -125 372 -124 370 -122 595 1 218 -9 268 -83 385 -78 124 -99 179 -115
296 -55 390 -154 823 -271 1173 -111 335 -254 515 -545 690 -209 124 -451 224
-1146 469 -750 265 -940 346 -1193 509 -160 103 -181 113 -229 113 -21 0 -102
-22 -180 -50 -335 -118 -694 -175 -1181 -187 -584 -14 -913 50 -1419 276 -62
28 -127 51 -145 50 -17 0 -58 -10 -91 -22z m831 -1125 c-7 -7 -43 17 -50 33
-4 11 3 9 24 -7 16 -12 28 -23 26 -26z m5153 -972 c0 -9 -4 -8 -9 5 -5 11 -9
27 -9 35 0 9 4 8 9 -5 5 -11 9 -27 9 -35z m-8190 -7067 c-1 -85 -4 -128 -9
-113 -13 41 -8 250 6 250 2 0 4 -62 3 -137z m7016 -393 c-4 -39 -9 -69 -12
-67 -2 3 -1 37 3 76 3 40 9 70 11 67 3 -3 2 -37 -2 -76z m-18 -112 c-3 -7 -5
-2 -5 12 0 14 2 19 5 13 2 -7 2 -19 0 -25z m-70 -1660 c-2 -24 -4 -5 -4 42 0
47 2 66 4 43 2 -24 2 -62 0 -85z"/>
</g>
</svg>
